<svg xmlns="http://www.w3.org/2000/svg" viewBox="0 0 300 300"><defs><style>.cls-1{fill:#26a9e0;}.cls-2{fill:none;}.cls-2,.cls-3,.cls-4{stroke:#000;}.cls-2,.cls-3{stroke-linecap:round;stroke-linejoin:round;}.cls-3{fill-opacity:0.4;stroke-width:0.75px;}.cls-4{fill-opacity:0.2;stroke-miterlimit:10;stroke-width:0.5px;}</style></defs><title>accessory</title><g id="accessory-01"><path id="fill_color" data-name="fill color" class="cls-1" d="M141.5,79.5s-1,11-1,17v8s-11,3-15,3h-10s-1-11-1-15-2-10,6-13a138,138,0,0,1,14-1C140.5,78.5,141.5,79.5,141.5,79.5Z"/><path class="cls-2" d="M141.5,79.5s-1,11-1,17v8s-11,3-15,3h-10s-1-11-1-15-2-10,6-13a138,138,0,0,1,14-1C140.5,78.5,141.5,79.5,141.5,79.5Z"/><path class="cls-3" d="M116.5,106.5s22-2.67,24-3.33v1.33s-11.42,2.74-13.21,2.87-11.79.13-11.79.13v-.94l1-.06"/><circle cx="137.5" cy="100.5" r="1"/><circle cx="139" cy="81" r="0.75"/><circle cx="117" cy="103" r="0.75"/><path class="cls-4" d="M117,88h3a3.49,3.49,0,0,1,2-1c1,0,9.5-1.5,9.5-1.5s-9,7-10,13v4l7-1s-1-6,2-10a22.28,22.28,0,0,1,7-6v-3l-1-1-18,2-1,1Z"/></g></svg>