<svg xmlns="http://www.w3.org/2000/svg" viewBox="0 0 300 300"><defs><style>.cls-1{fill:#26a9e0;}.cls-2{fill:#fff;fill-opacity:0.2;}.cls-3,.cls-4{fill:none;stroke:#000;stroke-linecap:round;stroke-linejoin:round;}.cls-4{stroke-width:0.75px;}</style></defs><title>accessory</title><g id="accessory-02"><path id="fill_color" data-name="fill color" class="cls-1" d="M103.5,165.5s11-4,15-6a59.46,59.46,0,0,1,7-3s5,0,6,3,0,5-1,6-23,8-23,8a4.45,4.45,0,0,1-5-2C99.5,166.5,103.5,165.5,103.5,165.5Z"/><path class="cls-2" d="M102,167c-1.07,1.3,1.29,6.38,2.64,6.19s6.07.81,4.36-4.12C107.18,165,103.05,165.72,102,167Z"/><path class="cls-3" d="M103.5,165.5s11-4,15-6a59.46,59.46,0,0,1,7-3s5,0,6,3,0,5-1,6-23,8-23,8a4.45,4.45,0,0,1-5-2C99.5,166.5,103.5,165.5,103.5,165.5Z"/><path class="cls-4" d="M106.5,173.5c3-1,3-3,2-5-3-4-6-2-6-2.24"/><path class="cls-4" d="M109.1,163.4s4.4.1,5.4,3.1a5.22,5.22,0,0,1-.78,5"/><circle cx="128" cy="161" r="1"/></g></svg>