<svg id="accessory-10" xmlns="http://www.w3.org/2000/svg" viewBox="0 0 300 300"><defs><style>.cls-1{fill:#26a9e0;}.cls-2{fill:none;}.cls-2,.cls-4{stroke:#000;stroke-miterlimit:10;}.cls-3,.cls-4{fill:#fff;}.cls-3{fill-opacity:0.2;}.cls-5{fill:#d0d2d3;}.cls-6{fill-opacity:0.4;}</style></defs><title>accessory</title><path id="fill_color" data-name="fill color" class="cls-1" d="M122.5,88.5v6s3,4,13,3c12.5-.5,16-5,16-5v-6l-2-3a63.26,63.26,0,0,0-15,0C126.5,84.5,122.5,85.5,122.5,88.5Z"/><path class="cls-2" d="M122.5,88.5v6s2,3,13,3,16-5,16-5v-6l-2-3a63.26,63.26,0,0,0-15,0C126.5,84.5,122.5,85.5,122.5,88.5Z"/><path class="cls-3" d="M142.5,89.5c.2-.05,1.28-.44,1.5-.5-.63-1.83-4.53-5.64-5.5-5.7-7-.41-11.66,1-13.22,2-1.78,1.16-3.78,2.16,1.22,4.16C129.5,90.5,138.5,90.5,142.5,89.5Z"/><path class="cls-2" d="M142.5,89.5c4-1,10.83-4.83,3.92-5.92s-19.36.59-21.14,1.75-3.78,2.16,1.22,4.16C129.5,90.5,138.5,90.5,142.5,89.5Z"/><path class="cls-4" d="M130.5,52.5,128.24,84s1.26,3.47,7.26,2.47,7.33-3.44,7.33-3.44L132.5,54.5S131.5,51.5,130.5,52.5Z"/><path class="cls-5" d="M131.5,55.5l7.06,30.26s3.94-.26,3.94-2.26-10-29-10-29S130.5,50.5,131.5,55.5Z"/><path class="cls-2" d="M130.5,52.5,128.24,84s1.26,3.47,7.26,2.47,7.33-3.44,7.33-3.44L132.5,54.5S131.5,51.5,130.5,52.5Z"/><path class="cls-6" d="M144.09,88.72v8l7.41-4.26v-6l-2-3C150,85.88,147.82,87.51,144.09,88.72Z"/></svg>