<svg xmlns="http://www.w3.org/2000/svg" viewBox="0 0 300 300"><defs><style>.cls-1{fill:#26a9e0;}.cls-2{fill:#be1e2d;}.cls-11,.cls-2,.cls-5,.cls-6,.cls-7,.cls-9{stroke:#000;}.cls-11,.cls-2,.cls-5,.cls-9{stroke-miterlimit:10;}.cls-3{fill:#561317;}.cls-4{fill:#ed293b;}.cls-11,.cls-5,.cls-7{fill:none;}.cls-5,.cls-6{stroke-width:0.75px;}.cls-6{fill:#fff;}.cls-6,.cls-8{fill-opacity:0.2;}.cls-6,.cls-7{stroke-linecap:round;stroke-linejoin:round;}.cls-9{fill:#e6e7e8;}.cls-10{fill:#d0d2d3;}</style></defs><title>accessory</title><g id="accessory-03"><path id="fill_color" data-name="fill color" class="cls-1" d="M122.5,94.5s4,3,13,3,16-6,16-6a26.39,26.39,0,0,0-1-7c-1-3-10.49-2.87-15.74-1.93s-11.26.93-12.26,3.93Z"/><ellipse class="cls-2" cx="133" cy="26" rx="7.5" ry="6.5"/><path class="cls-3" d="M140,25c.19.68-5.51,8.12-11.57,6.27a8.65,8.65,0,0,0,7.91.53C141,30,140,25,140,25Z"/><ellipse class="cls-4" cx="130.22" cy="22.93" rx="4.46" ry="2.23" transform="matrix(0.87, -0.5, 0.5, 0.87, 5.98, 68.18)"/><ellipse class="cls-5" cx="133" cy="26" rx="7.5" ry="6.5"/><path class="cls-6" d="M135.5,82.5s-13,1-13,4,9,4,13,4,15-2,15-6S135.5,82.5,135.5,82.5Z"/><path class="cls-7" d="M122.5,94.5s4,3,13,3,16-6,16-6a26.39,26.39,0,0,0-1-7c-1-3-10.49-2.87-15.74-1.93s-11.26.93-12.26,3.93Z"/><path class="cls-8" d="M148.19,93.77c.31-1.27-.69-6.27-.69-6.27s-7.41-2.59-8.2-2.3,1.86-.8,2-1.75.23-1.43.23-1.43,3.12,0,5.53.25,3.41,1.47,3.41,2.35l.64,2.58.36,4.29-3,2"/><path class="cls-9" d="M133,29.24s-7.5,13.21-6.5,28.88a245.78,245.78,0,0,0,3,26.43s0,2,4,2a14,14,0,0,0,7-2,3.4,3.4,0,0,0,1-2c0-1-11-18.6-8-48.94C133.5,33.64,134.5,27.77,133,29.24Z"/><path class="cls-10" d="M130.5,46.5a94.41,94.41,0,0,0,2,18,145.29,145.29,0,0,0,6,19l.52,1.8s2.48-.8,2.48-2.8c0,0-6.45-14.41-7.23-22.71S132.5,39.5,133.5,33.5c0,0-.08-3.33.21-2.91S130,38,130.5,46.5Z"/><path class="cls-11" d="M133,29.24s-7.5,13.21-6.5,28.88a245.78,245.78,0,0,0,3,26.43s0,2,4,2a14,14,0,0,0,7-2,3.4,3.4,0,0,0,1-2c0-1-11-18.6-8-48.94C133.5,33.64,134.5,27.77,133,29.24Z"/><path class="cls-7" d="M126,46s-9,1-9,6,10,5,13,5,12-1,12-6-8-5-8-5"/></g></svg>