<svg xmlns="http://www.w3.org/2000/svg" viewBox="0 0 300 300"><defs><style>.cls-1{fill:#26a9e0;}.cls-2,.cls-3{fill:none;stroke-linecap:round;stroke-linejoin:round;}.cls-2,.cls-3,.cls-5{stroke:#000;}.cls-3,.cls-5{stroke-width:0.75px;}.cls-4,.cls-6{fill:#fff;}.cls-4{fill-opacity:0.4;}.cls-5{fill:#ec1c24;stroke-miterlimit:10;}.cls-6,.cls-7{fill-opacity:0.2;}</style></defs><title>accessory</title><g id="accessory_05"><path id="fill_color" data-name="fill color" class="cls-1" d="M139.5,51.5s-24-2-32,33c0,0-6,25,20,25s32-17,34-32S149.5,51.5,139.5,51.5Z"/><path class="cls-2" d="M139.5,51.5c-15.88.08-26.77,10.62-32,33,0,0-5,26,20,25s34-18,34-32C161.5,60.5,149.5,51.5,139.5,51.5Z"/><path class="cls-3" d="M143.5,53.5s14,7,10,29-26,25-33,24-18-7-10.34-30.84C114.5,59.5,130.5,47.5,143.5,53.5Z"/><path class="cls-4" d="M121.5,63.5c-3,1.87-8,6-9,11s-1,14,0,16,4,1,4-2,0-17,5-21S123.4,62.32,121.5,63.5Z"/><path class="cls-4" d="M128.5,57.5s-6,4-3,5,6-3,6-3S133.5,56.5,128.5,57.5Z"/><path class="cls-5" d="M125.5,71.5s-7-2-10,1c-1.88,2.07,0,8,5,10s8-1,9-4S127.5,71.5,125.5,71.5Z"/><polygon class="cls-6" points="131 79 135 81 134.62 78.67 130.38 76.63 130.06 78.6 131 79"/><path class="cls-3" d="M130.09,76.5l4.46,2s.89,2,0,3a4.07,4.07,0,0,1-2.67,1L129,80.79A5.22,5.22,0,0,0,130.09,76.5Z"/><ellipse class="cls-4" cx="120" cy="75.5" rx="2.5" ry="2"/><path class="cls-7" d="M123.5,71.5s5,2,4,6-6.49,4.82-8.25,4.41,7.54,3.33,9.89-2.54S127,72,123.5,71.5Z"/></g></svg>