<svg xmlns="http://www.w3.org/2000/svg" viewBox="0 0 300 300"><defs><style>.cls-1{fill:#26a9e0;}.cls-2,.cls-3,.cls-8{fill:#fff;}.cls-2,.cls-3,.cls-7{fill-opacity:0.2;}.cls-2,.cls-4,.cls-5{stroke:#000;stroke-linecap:round;stroke-linejoin:round;}.cls-2{stroke-width:0.75px;}.cls-4{fill:none;}.cls-5{fill:#ec1c24;}.cls-6{fill-opacity:0.1;}.cls-8{fill-opacity:0.4;}</style></defs><title>accessory</title><g id="accessory-04"><path id="fill_color" data-name="fill color" class="cls-1" d="M136.5,83.5c-3.39.31-11,2-13,4a4.38,4.38,0,0,0-1,3v5a18.26,18.26,0,0,0,13,3c8-1,16-6,16-6s0-6-1-7-1-2-5-2S138.74,83.3,136.5,83.5Z"/><path class="cls-2" d="M125.7,86.16s-2.2,1.34-1.2,3.34,7,3,12,2a53.37,53.37,0,0,0,11-4s3.57-2.09,1.29-3.54S131.89,82.83,125.7,86.16Z"/><path class="cls-3" d="M125.7,86.16s-2.2,1.34-1.2,3.34,7,3,12,2A55.23,55.23,0,0,0,145.11,89c-1.11-2-8.42-5.89-8.42-5.89S129.47,84.13,125.7,86.16Z"/><path class="cls-4" d="M136.5,83.5c-3.39.31-11,2-13,4a4.38,4.38,0,0,0-1,3v5a18.26,18.26,0,0,0,13,3c8-1,16-6,16-6s0-6-1-7-1-2-5-2S138.74,83.3,136.5,83.5Z"/><path class="cls-5" d="M134.5,73.5s-5,1-5,6,1,7,1,7a18.58,18.58,0,0,0,8,0c4-1,5-3,5-3S142.5,73.5,134.5,73.5Z"/><path class="cls-6" d="M139.5,75.5s2,3,1,6-6,5-6,5,8-1,9-3S140.5,76.5,139.5,75.5Z"/><path class="cls-4" d="M134.5,73.5s-5,1-5,6,1,7,1,7a18.58,18.58,0,0,0,8,0c4-1,5-3,5-3S142.5,73.5,134.5,73.5Z"/><path class="cls-7" d="M144.5,88.5c1,1,0,7.3,0,7.3l7-3.3s0-6.14-1.5-7.57C148,88,147,88,144.5,88.5Z"/><path class="cls-8" d="M133.5,75.5a1,1,0,0,1,1,1c0,1,0,6-2,6s-3,0-2-4S133.5,75.5,133.5,75.5Z"/></g></svg>