<svg xmlns="http://www.w3.org/2000/svg" viewBox="0 0 300 300"><defs><style>.cls-1{fill:#26a9e0;}.cls-10,.cls-2,.cls-4,.cls-8,.cls-9{fill:none;}.cls-10,.cls-2,.cls-3,.cls-4,.cls-5,.cls-6,.cls-8,.cls-9{stroke:#000;}.cls-2,.cls-3,.cls-4,.cls-5,.cls-6,.cls-8{stroke-linecap:round;}.cls-2,.cls-3,.cls-4,.cls-5,.cls-6,.cls-8,.cls-9{stroke-linejoin:round;}.cls-3,.cls-5{fill:#fff;}.cls-3,.cls-5,.cls-6,.cls-7{fill-opacity:0.2;}.cls-3,.cls-4{stroke-width:0.75px;}.cls-10,.cls-8,.cls-9{stroke-width:1.5px;}.cls-10{stroke-miterlimit:10;}</style></defs><title>accessory</title><g id="accessory-08"><g id="fill_color" data-name="fill color"><path class="cls-1" d="M128.5,86.5a3.49,3.49,0,0,0-1,2v3s3,3,9,3,12-4,12-4v-5s-1-1-6-1S131.5,84.5,128.5,86.5Z"/><path class="cls-1" d="M173.5,21.5l-35,17s-.57,2.41.22,3.71l.78,1.29,37-18S178.5,20.5,173.5,21.5Z"/><path class="cls-1" d="M96.5,58.5s-2,2-1,3,3,0,3,0l33.66-15.9a6.44,6.44,0,0,1-.66-3.1Z"/><path class="cls-1" d="M134.5,47.5l-1,37a4.33,4.33,0,0,0,4,2,7.65,7.65,0,0,0,5-2l-2-40S135.5,44.5,134.5,47.5Z"/><path class="cls-1" d="M136.5,38.5l-4,2a3.76,3.76,0,0,0-.81,1.55,5.34,5.34,0,0,0-.19,1.45c0,2,2,4,3,4,0,0-.17-.54,1.42-1.77a8.26,8.26,0,0,1,4.32-1.22h.26s-2-2-2-3v-3Z"/></g><path class="cls-2" d="M134.5,47.5l-1,37a4.33,4.33,0,0,0,4,2,7.65,7.65,0,0,0,5-2l-2-40S135.5,44.5,134.5,47.5Z"/><path class="cls-3" d="M128.5,87.5s0,2,6,2,11-1,13-3c.48-.55.5-1.75-2.25-1.87-1,0-3.15,0-3.15,0a6.77,6.77,0,0,1-4.1,1.8c-3.5.1-4.31-1.6-4.31-1.6S128.5,85.5,128.5,87.5Z"/><path class="cls-2" d="M128.5,86.5a3.49,3.49,0,0,0-1,2v3s3,3,9,3,12-4,12-4v-5s-.8-1-5.8-1a7.15,7.15,0,0,1-4.57,2c-1.63,0-4.17,0-4.63-1.72A10.71,10.71,0,0,0,128.5,86.5Z"/><path class="cls-4" d="M128.5,86.5a3.49,3.49,0,0,0-1,2v3s3,3,9,3,12-4,12-4v-5c-.63-.65-1.9-1.15-6-1a6.16,6.16,0,0,1-4.17,1.8c-3.83.2-4.41-1.46-4.41-1.46S129.5,85.5,128.5,86.5Z"/><path class="cls-2" d="M136.5,38.5l-4,2a3.76,3.76,0,0,0-.81,1.55,5.34,5.34,0,0,0-.19,1.45c0,2,2,4,3,4,0,0-.17-.54,1.42-1.77a8.26,8.26,0,0,1,4.32-1.22h.26s-2-2-2-3v-3Z"/><path class="cls-5" d="M96.5,58.5s-2,2-1,3,3,0,3,0l33.8-15.6a7.45,7.45,0,0,1-.8-3.4Z"/><path class="cls-5" d="M173.5,21.5l-35,17s-.57,2.41.22,3.71l.78,1.29,37-18C177.52,25.52,179.49,20.53,173.5,21.5Z"/><circle class="cls-6" cx="175.5" cy="23.5" r="2"/><path d="M137.5,5.5s-2,0,1,2,32,15,32,15l2-1-33-15Z"/><path d="M56.72,44a1.7,1.7,0,0,0,1.2,1.19L96.29,58.83l1.89-1.2L58.81,44.1S56.44,43,56.72,44Z"/><path d="M114.5,17.5s-2,0,1,2,32,15,32,15l2-1-33-15Z"/><path d="M102,26.53s-2,.12,1.12,1.94S133,40.2,133,40.2l1.91-.77-30.83-12Z"/><path d="M177.5,24.19,212,41c1,1,.39,1.37-2,1L176.5,25.5S177,25.38,177.5,24.19Z"/><path d="M154.91,35.41l35.6,14.34S192,51,188.58,50.88L154,36.79Z"/><polygon points="102.89 59.02 134.34 68.69 133.65 69.98 101 59.98 102.89 59.02"/><path d="M142,42.54l35.55,13c2.4.9.47,2.47-2,1.19L140.2,43.79Z"/><path class="cls-7" d="M136,38.75a5.37,5.37,0,0,0-.5,2.75c0,2,2.22,3.37,2.22,3.37l1.8,40.84L144,88.34v4l4.46-1.89v-5a35.36,35.36,0,0,0-6-1l-2-40a3.7,3.7,0,0,1-2-3v-3Z"/><path class="cls-8" d="M119.5,47.5l-32-12s-3-1-4,1,0,3,2,4,27,10,27,10"/><line class="cls-8" x1="116.05" y1="49.09" x2="83.95" y2="37.51"/><line class="cls-9" x1="125.5" y1="49.2" x2="134.36" y2="52.57"/><line class="cls-10" x1="117.9" y1="52.66" x2="134" y2="59"/><line class="cls-10" x1="121.42" y1="50.93" x2="134.27" y2="55.83"/><path class="cls-10" d="M141,54.57,158,62s4,2,3,4-5,1-6,1-13.65-5.5-13.65-5.5"/><line class="cls-9" x1="141.18" y1="58.12" x2="160.5" y2="66.5"/></g></svg>