<svg xmlns="http://www.w3.org/2000/svg" viewBox="0 0 300 300"><defs><style>.cls-1{fill:#26a9e0;}.cls-2,.cls-4{fill-opacity:0.2;}.cls-3,.cls-6{fill:none;}.cls-3,.cls-5,.cls-6{stroke:#000;}.cls-3,.cls-5{stroke-miterlimit:10;}.cls-4{fill:#fff;}.cls-5{fill:#ec1c24;stroke-width:0.75px;}.cls-6{stroke-linecap:round;stroke-linejoin:round;}</style></defs><title>accessory</title><g id="accessory-07"><path id="fill_color" data-name="fill color" class="cls-1" d="M131,59s-13,1-14,6a2.62,2.62,0,0,0,.5,2.5c1,1,3,5,4,8s2,5,0,5-8,2-10,4-1,5-1,5l1,9a33.15,33.15,0,0,0,18,5c16.5.5,34-9,35-10s-1-11-1-11c.16-.17-2.84-5.17-4-5-1,.14-12,0-12,0s0-15-1-16S141.5,58.5,131,59Z"/><path class="cls-2" d="M151.5,88.5s1.14,9.54.57,10.77c0,0,12.43-4.77,12.43-5.77s0-9-1-11a27.36,27.36,0,0,0-4-5s1.59,1.44-.21,3.72-5.36,6.31-8.08,6.3Z"/><path class="cls-3" d="M131,59s-13,1-14,6a2.62,2.62,0,0,0,.5,2.5c1,1,3,5,4,8s2,5,0,5-8,2-10,4-1,5-1,5l1,9s6,5,18,5c18,0,34-9,35-10s-1-11-1-11-3-4.79-4-5-12-.18-12,0c0,0,0-15-1-16S141.5,58.5,131,59Z"/><path class="cls-4" d="M121.5,80.5s-7.3,1.22-8.65,3.11.21,5.68,3.93,6.29,12.31,2.13,27-.63l7.42-1.75-10.71-4A38.39,38.39,0,0,0,121.5,80.5Z"/><path class="cls-3" d="M132.5,67.5s15-1,14-5-14-3.56-14-3.56S118,60,117.26,64.25,132.5,67.5,132.5,67.5Z"/><path class="cls-5" d="M121.5,75.5s0,2,6,3,13-2,16-4,3.33-3.41,3.33-3.41l.67,6.41a10.67,10.67,0,0,1-8,6c-13,3-16.91-3.58-16.91-3.58Z"/><path class="cls-2" d="M137,67l3.87,16.18S147,80,147,77s0-13.73,0-13.73S145.09,67,137,67Z"/><path class="cls-4" d="M136.18,59l.82,8s-18,2-20-2S130.36,58,136.18,59Z"/><path class="cls-6" d="M113.16,83.3s-6.66,9.2,23.18,7c25.17-1.75,23.8-12.39,23.8-12.39l3.36,4.64s2,10,1,11-18,10-33.68,10a45.47,45.47,0,0,1-16.46-3.35,7.75,7.75,0,0,1-2.86-1.61l-1.2-10A5.34,5.34,0,0,1,113.16,83.3Z"/></g></svg>