<svg xmlns="http://www.w3.org/2000/svg" viewBox="0 0 300 300"><defs><style>.cls-1{fill:#26a9e0;}.cls-2{fill:#fff;fill-opacity:0.4;}.cls-2,.cls-3{stroke:#000;stroke-linecap:round;stroke-linejoin:round;}.cls-3{fill:none;stroke-width:0.75px;}</style></defs><title>accessory</title><g id="accessory-06"><path id="fill_color" data-name="fill color" class="cls-1" d="M125.5,157.5s8-4,15-3,20,8,26,5l8-4s-3,13-14,14-29-3-35-2-25,7-30,6-10-1-12-11c0,0-1-3,3,0s11,4,18-1S119.5,153.5,125.5,157.5Z"/><path class="cls-2" d="M125.5,157.5s8-4,15-3,20,8,26,5l8-4s-3,13-14,14-29-3-35-2-25,7-30,6-10-1-12-11c0,0-1-3,3,0s11,4,18-1S119.5,153.5,125.5,157.5Z"/><ellipse cx="107.5" cy="165.25" rx="1" ry="1.25"/><ellipse cx="99.5" cy="168.25" rx="1" ry="1.25"/><ellipse cx="91.75" cy="168.94" rx="0.75" ry="0.94"/><ellipse cx="115.5" cy="163.25" rx="1" ry="1.25"/><ellipse cx="134.5" cy="162.25" rx="1" ry="1.25"/><ellipse cx="145.5" cy="163.25" rx="1" ry="1.25"/><ellipse cx="154.5" cy="164.25" rx="1" ry="1.25"/><ellipse cx="161.5" cy="163.25" rx="1" ry="1.25"/><circle class="cls-3" cx="125" cy="162" r="2.5"/><circle cx="125" cy="162" r="0.5"/></g></svg>