<svg xmlns="http://www.w3.org/2000/svg" viewBox="0 0 300 300"><defs><style>.cls-1{fill:#26a9e0;}.cls-2{fill:none;}.cls-2,.cls-3,.cls-5,.cls-6,.cls-7{stroke:#000;stroke-miterlimit:10;}.cls-3,.cls-4{fill:#fff;}.cls-3,.cls-4,.cls-8{fill-opacity:0.2;}.cls-5{fill:#716558;}.cls-6{fill:#9a8479;}.cls-7{fill:#c1b49a;}</style></defs><title>accessory</title><g id="accessory-09"><path id="fill_color" data-name="fill color" class="cls-1" d="M135,83s-13,2-13,5a54.33,54.33,0,0,0,.5,6.5s4,4,13,3a37.83,37.83,0,0,0,16-6v-5l-3-4S143.5,81.5,135,83Z"/><path class="cls-2" d="M135,83s-13,2-13,5a54.33,54.33,0,0,0,.5,6.5s4,4,13,3a37.83,37.83,0,0,0,16-6v-5l-3-4S143.5,81.5,135,83Z"/><path class="cls-3" d="M123.5,88.5s2,3,10,2,14-3,15-5,1.19-2.37-1.41-3.18-13.22.86-16.41,1.52S122.5,85.5,123.5,88.5Z"/><path class="cls-4" d="M123.5,88.5s2,3,10,2a47.41,47.41,0,0,0,11.86-2.78c-.38.16-4.11-2.4-4.11-2.4s1.43-3.14,2-3.18a105.65,105.65,0,0,0-12.56,1.69C127.5,84.5,122.5,85.5,123.5,88.5Z"/><path class="cls-5" d="M139.5,66.5s-4-16,3-27c0,0-2-7-6-3,0,0-4,3-5,15a66,66,0,0,0,2,22S138.5,73.5,139.5,66.5Z"/><path class="cls-6" d="M119.5,36.5s1,13,3,19,4,11,6,16,5,7,6,5,0-3-2-10-5-18-5-25v-7a10.34,10.34,0,0,0-4-1C121.5,33.5,119.5,34.5,119.5,36.5Z"/><path class="cls-5" d="M110.5,50.5s8,8,10,13,5,13,6,10-3-18-6-22a61.22,61.22,0,0,0-5-6S110.5,45.5,110.5,50.5Z"/><path class="cls-7" d="M136.5,86.5s-5-19-19-28-20-7-20-7-4,3,1,6,12,5,18,10,12,14,12,16S131.5,88.5,136.5,86.5Z"/><path class="cls-7" d="M134.5,73.5s6-25,16-32,9,2,9,2v4s-4-2-8,5-9,19-9,23v8s-4,5-6,3c0,0-3.24-7.59-3.12-8.3S134.5,73.5,134.5,73.5Z"/><path class="cls-8" d="M144.36,88.12v7.11l7.14-3.73.07-4.64L150,84A11.59,11.59,0,0,1,144.36,88.12Z"/></g></svg>