<svg xmlns="http://www.w3.org/2000/svg" viewBox="0 0 300 300"><defs><style>.cls-1{fill:#26a9e0;}.cls-2{fill-opacity:0.4;}.cls-3{fill:none;}.cls-3,.cls-4{stroke:#000;stroke-linecap:round;stroke-linejoin:round;}.cls-4{fill:#461917;stroke-width:0.5px;}</style></defs><title>mouth</title><g id="mouth-07"><g id="fill_color" data-name="fill color"><path id="background" class="cls-1" d="M122,180s1,10,2,14,1.5,6.5,1.5,6.5,3,0,4-1-2-17-2-18v-2s-1.49,0-3,.11A12,12,0,0,0,122,180Z"/><path id="background-2" data-name="background" class="cls-1" d="M131,179s1,10,2,14,1.5,6.5,1.5,6.5,3,0,4-1-2-17-2-18v-2s-1.49,0-3,.11A12,12,0,0,0,131,179Z"/><path id="background-3" data-name="background" class="cls-1" d="M141,179s1,10,2,14,1.5,6.5,1.5,6.5,3,0,4-1-2-17-2-18v-2s-1.49,0-3,.11A12,12,0,0,0,141,179Z"/><path id="background-4" data-name="background" class="cls-1" d="M149,178s1,10,2,14,1.5,6.5,1.5,6.5,3,0,4-1-2-17-2-18v-2s-1.49,0-3,.11A12,12,0,0,0,149,178Z"/></g><path class="cls-2" d="M122,180s1,10,2,14,1.5,6.5,1.5,6.5,3,0,4-1-2-17-2-18v-2s-1.49,0-3,.11A12,12,0,0,0,122,180Z"/><path class="cls-3" d="M122,180s1,10,2,14,1.5,6.5,1.5,6.5,3,0,4-1-2-17-2-18v-2s-1.49,0-3,.11A12,12,0,0,0,122,180Z"/><path class="cls-4" d="M124.5,180.5s1,11,2,14a15.77,15.77,0,0,1,1,4s2.34-.11,2.17.44a31,31,0,0,0-.82-8.63,59,59,0,0,1-1.35-10.07v-.75h-3Z"/><line class="cls-4" x1="125.85" y1="200.49" x2="127.5" y2="198.5"/><path class="cls-2" d="M131,179s1,10,2,14,1.5,6.5,1.5,6.5,3,0,4-1-2-17-2-18v-2s-1.49,0-3,.11A12,12,0,0,0,131,179Z"/><path class="cls-3" d="M131,179s1,10,2,14,1.5,6.5,1.5,6.5,3,0,4-1-2-17-2-18v-2s-1.49,0-3,.11A12,12,0,0,0,131,179Z"/><path class="cls-4" d="M133.5,179.5s1,11,2,14a15.77,15.77,0,0,1,1,4s2.34-.11,2.17.44a31,31,0,0,0-.82-8.63,59,59,0,0,1-1.35-10.07v-.75h-3Z"/><line class="cls-4" x1="134.85" y1="199.49" x2="136.5" y2="197.5"/><path class="cls-2" d="M141,179s1,10,2,14,1.5,6.5,1.5,6.5,3,0,4-1-2-17-2-18v-2s-1.49,0-3,.11A12,12,0,0,0,141,179Z"/><path class="cls-3" d="M141,179s1,10,2,14,1.5,6.5,1.5,6.5,3,0,4-1-2-17-2-18v-2s-1.49,0-3,.11A12,12,0,0,0,141,179Z"/><path class="cls-4" d="M143.5,179.5s1,11,2,14a15.77,15.77,0,0,1,1,4s2.34-.11,2.17.44a31,31,0,0,0-.82-8.63,59,59,0,0,1-1.35-10.07v-.75h-3Z"/><line class="cls-4" x1="144.85" y1="199.49" x2="146.5" y2="197.5"/><path class="cls-2" d="M149,178s1,10,2,14,1.5,6.5,1.5,6.5,3,0,4-1-2-17-2-18v-2s-1.49,0-3,.11A12,12,0,0,0,149,178Z"/><path class="cls-3" d="M149,178s1,10,2,14,1.5,6.5,1.5,6.5,3,0,4-1-2-17-2-18v-2s-1.49,0-3,.11A12,12,0,0,0,149,178Z"/><path class="cls-4" d="M151.5,178.5s1,11,2,14a15.77,15.77,0,0,1,1,4s2.34-.11,2.17.44a31,31,0,0,0-.82-8.63,59,59,0,0,1-1.35-10.07v-.75h-3Z"/><line class="cls-4" x1="152.85" y1="198.49" x2="154.5" y2="196.5"/></g></svg>