<svg xmlns="http://www.w3.org/2000/svg" viewBox="0 0 300 300"><defs><style>.cls-1{fill:#26a9e0;}.cls-2{opacity:0.4;}.cls-3,.cls-4,.cls-5{fill:none;}.cls-3,.cls-4,.cls-5,.cls-6,.cls-7,.cls-8{stroke:#000;}.cls-3,.cls-5,.cls-7{stroke-miterlimit:10;}.cls-4,.cls-6,.cls-8{stroke-linecap:round;stroke-linejoin:round;}.cls-4,.cls-5{stroke-width:0.5px;}.cls-6{fill:#f6921e;stroke-width:1.2px;}.cls-7{fill:#f9ec31;}.cls-7,.cls-8{stroke-width:0.75px;}.cls-8{fill:#f05a27;}</style></defs><title>mouth</title><g id="mouth-09"><path id="fill_color" data-name="fill color" class="cls-1" d="M109.5,197.5c0,4,1,5,1,5h34c10,0,21-1,21-1v-23l-1-4h-2c-2,0-54.5.5-54.5.5v11Z"/><path class="cls-2" d="M163.5,174.5v25s-52,1.5-53.75,1l.61,1.79,28.9.21s19.65-.79,21.7-.65A9,9,0,0,0,165,201l.41-22.84S164,174,163.5,174.5Z"/><path class="cls-3" d="M109.5,197.5c0,4,1,5,1,5h34c10,0,21-1,21-1v-23l-1-4h-2c-2,0-54.5.5-54.5.5v11Z"/><path class="cls-4" d="M113.5,200.5h27c10,0,23-1,23-1v-24"/><line class="cls-5" x1="163.5" y1="199.5" x2="165" y2="201"/><path class="cls-4" d="M162,177v12"/><path class="cls-6" d="M112.5,177.5h27c9,0,20-1,20-1v20l-54,1a34.21,34.21,0,0,1,2-11A44.27,44.27,0,0,1,112.5,177.5Z"/><path class="cls-7" d="M159,176.5s-3,7.5-4,11.5a87,87,0,0,0-1.59,8.61l-12.91.19s-1-2.3,1-7.3,5-12,5-12S157.5,177,159,176.5Z"/><path class="cls-7" d="M128.5,196.89h-11a19.28,19.28,0,0,1,2-11.22c3-6.12,3.75-8.16,3.75-8.16h11.56s-1.31,3.06-2.31,6.12-4,6.12-4,10.2Z"/><path class="cls-8" d="M135.13,177.5H146.5l-5.43,13.25a8.08,8.08,0,0,0-.82,4c.25,1.89,0,2.25,0,2.25H128.5a23.82,23.82,0,0,1,.92-7.35c1.08-3.08,2.1-3,3.59-7.58S135.13,177.5,135.13,177.5Z"/></g></svg>