<svg xmlns="http://www.w3.org/2000/svg" viewBox="0 0 300 300"><defs><style>.cls-1{fill:#26a9e0;}.cls-2{fill-opacity:0.4;}.cls-2,.cls-3,.cls-4,.cls-5{stroke:#000;stroke-miterlimit:10;}.cls-3{fill:#f6921e;}.cls-4{fill:#f9ec31;stroke-width:0.75px;}.cls-5{fill:none;}</style></defs><title>mouth</title><g id="mouth-08"><path id="fill_color" data-name="fill color" class="cls-1" d="M148,175s-6.5.5-12.5,1.5a83.3,83.3,0,0,1-12,1v14c0,2,3,13,13,12s13-7,13-11-1-17-1-17h0S148.5,174.5,148,175Z"/><path class="cls-2" d="M148,175s-6.5.5-12.5,1.5a83.3,83.3,0,0,1-12,1v14c0,2,3,13,13,12s13-7,13-11-1-17-1-17h0S148.5,174.5,148,175Z"/><path class="cls-3" d="M129.59,177.21,130,191s1,7,7,8,12-.83,12.5-4.92-1-19.58-1-19.58l-10.88,1.67C135.5,176.5,129.59,177.21,129.59,177.21Z"/><path class="cls-4" d="M137.25,176.19l.22,22.88s-7-.57-7.39-7.64c-.58-4.93-.58-13.93-.58-13.93Z"/><path class="cls-5" d="M129.59,177.21,130,191s1,7,7,8,12-.83,12.5-4.92-1-19.58-1-19.58l-10.88,1.67C135.5,176.5,129.59,177.21,129.59,177.21Z"/></g></svg>