<svg xmlns="http://www.w3.org/2000/svg" viewBox="0 0 300 300"><defs><style>.cls-1{fill:#26a9e0;}.cls-2{fill:none;}.cls-2,.cls-5{stroke:#000;stroke-linecap:round;stroke-linejoin:round;}.cls-3{opacity:0.4;}.cls-4{fill:#461917;}.cls-5{fill-opacity:0.4;stroke-width:0.75px;}</style></defs><title>mouth</title><g id="mouth-05"><path id="fill_color" data-name="fill color" class="cls-1" d="M130.5,175.5v15a73.09,73.09,0,0,0,1,13s6,1,6,0-1-28-1-28C134.18,175.38,131.28,175.06,130.5,175.5Z"/><path class="cls-2" d="M130.5,175.5v15a73.09,73.09,0,0,0,1,13s6,1,6,0-1-28-1-28C134.18,175.38,131.28,175.06,130.5,175.5Z"/><path class="cls-3" d="M131.65,203a75.68,75.68,0,0,1-1.4-15.06,102.33,102.33,0,0,1,.48-12.27,3,3,0,0,1,1.25-.25,5.33,5.33,0,0,1,1,.1l.43.2h0s0,.16-.13.72a138.49,138.49,0,0,0-1,14.06,64.14,64.14,0,0,0,1,10.92Z"/><path d="M132,175.67h0a5,5,0,0,1,.87.08l.25.11a3.34,3.34,0,0,1-.09.52v.05a139.54,139.54,0,0,0-1,14.06,64.67,64.67,0,0,0,1,10.83l-1.16,1.16a77,77,0,0,1-1.3-14.56,107.4,107.4,0,0,1,.46-12.1,2.85,2.85,0,0,1,1-.17m0-.5a3.13,3.13,0,0,0-1.48.33s-.5,3-.5,12.44a72,72,0,0,0,1.5,15.56l2-2a62.68,62.68,0,0,1-1-11,138,138,0,0,1,1-14c.13-.56.15-.92,0-1l-.5-.23a5.57,5.57,0,0,0-1-.1Z"/><path class="cls-4" d="M137.19,201.56a5.59,5.59,0,0,0-2.48-.65,3.64,3.64,0,0,0-1.34.25,39.16,39.16,0,0,1-1.12-9c0-4.56,1.26-14.93,1.47-16.62l2.54.17.56,15.47Z"/><path d="M133.94,175.83,136,176l.56,15.25.35,9.94a5.61,5.61,0,0,0-2.21-.5,4,4,0,0,0-1.17.17,39,39,0,0,1-1-8.64c0-4.37,1.16-14.11,1.44-16.36m-.44-.53s-1.5,11.86-1.5,16.89a38.68,38.68,0,0,0,1.2,9.31,3.33,3.33,0,0,1,1.51-.35,5.56,5.56,0,0,1,2.74.85l-.38-10.8-.57-15.7-3-.2Z"/><path class="cls-5" d="M137.5,201.5v2l-5.7,0,1.7-2S134.5,199.5,137.5,201.5Z"/></g></svg>