<svg xmlns="http://www.w3.org/2000/svg" viewBox="0 0 300 300"><defs><style>.cls-1{fill:#26a9e0;}.cls-2{fill-opacity:0.4;stroke:#000;stroke-linecap:round;stroke-linejoin:round;}</style></defs><title>mouth</title><g id="mouth-01"><path id="fill_color" data-name="fill color" class="cls-1" d="M123,183l-1,9a26.74,26.74,0,0,0,3.5.5c2,.44,22,.35,23-1l-1-9S132.5,181.5,123,183Z"/><path class="cls-2" d="M123,183l-1,9a26.74,26.74,0,0,0,3.5.5c2,.44,22,.35,23-1l-1-9S132.5,181.5,123,183Z"/><path d="M123.5,183.34s3.07,2.66,12.26,2.66S147,182.45,147,182.45a113.13,113.13,0,0,0-12.2-.28C129.63,182.45,124.52,182.45,123.5,183.34Z"/></g></svg>