<svg xmlns="http://www.w3.org/2000/svg" viewBox="0 0 300 300"><defs><style>.cls-1{fill:#26a9e0;}.cls-2{fill:#f9ec31;}.cls-3{fill:#faaf40;}.cls-4,.cls-6{fill:none;}.cls-4,.cls-5,.cls-6{stroke:#000;stroke-linecap:round;stroke-linejoin:round;}.cls-5{fill-opacity:0.4;}.cls-5,.cls-6{stroke-width:0.75px;}</style></defs><title>mouth</title><g id="mouth-04"><path id="fill_color" data-name="fill color" class="cls-1" d="M104,173s5.5,23.5,5.5,27.5c0,0,6,5,24,5s41-10,43-14c0,0-4-29-5-30,0,0-25,11-45,12-10.61.62-16.74.27-19.85-.08A20.06,20.06,0,0,1,104,173Z"/><path class="cls-2" d="M106.65,173.42s3.08,5.1,4.72,14.34,1,10.85,1,10.85S123,203,128,203a73,73,0,0,0,18-1.77,131.07,131.07,0,0,0,22.47-7.33l7.93-3.29-3.18-21.13-1.7-8s-26,11-45,12-20,0-20,0"/><path class="cls-3" d="M142.5,181.5V190l17.5-4,1,6v4.9l15-5.9-3-20.5C173.15,170.88,153.19,178.85,142.5,181.5Z"/><path class="cls-3" d="M142.4,190a38.22,38.22,0,0,0,2.1,11.5s-10.5,1.5-17,1S113,199,113,199l-2.5-15.5h11L123,191A122,122,0,0,0,142.4,190Z"/><path class="cls-3" d="M118,174l3.5,9c7.62.33,21-1.5,21-1.5s-1.13-7.27-2.5-9.5Z"/><path class="cls-4" d="M104,173s5.5,23.5,5.5,27.5c0,0,6,5,24,5s41-10,43-14c0,0-4-29-5-30,0,0-25,11-45,12-10.61.62-16.74.27-19.85-.08A20.06,20.06,0,0,1,104,173Z"/><path class="cls-5" d="M112.33,198.61S122,203,130,203s23.5-2.5,32.5-6.5,13.88-5.89,13.88-5.89l.12.89a31.45,31.45,0,0,1-8.77,5.75c-5.23,2.25-19.73,8.25-35.48,8.25s-22.75-5-22.75-5l2.83-1.89"/><path class="cls-5" d="M107.5,174.5a93.08,93.08,0,0,1,4,14,67.34,67.34,0,0,1,1,10l-3,2s-2.2-15.2-4.6-23.6l-.9-3.69,2.93.25Z"/><path class="cls-6" d="M124.61,202.46c.11-5-2.11-16-4.11-22s-3.42-6.66-3.42-6.66"/><path class="cls-6" d="M140.25,171.58s2.25,5.92,2.25,9.92v8s.33,10.83,2.67,11.92"/><path class="cls-6" d="M112,191s17,1,30-1,30-7,30-7l3-1"/><path class="cls-6" d="M142.5,181.5v8.42l17.51-3.7,1,8.28V194s-1-9-2-14-2.84-12.76-2.84-12.76"/><path class="cls-6" d="M176.5,190.5,173,170c-1.23,1.23-7.76,4-15.16,6.6-4.63,1.64-9.61,3.24-13.84,4.4-11,3-33.55,2.5-33.55,2.5"/></g></svg>