<svg xmlns="http://www.w3.org/2000/svg" viewBox="0 0 300 300"><defs><style>.cls-1{fill:#26a9e0;}.cls-2{fill-opacity:0.4;}.cls-2,.cls-5,.cls-6{stroke:#000;stroke-linecap:round;stroke-linejoin:round;}.cls-3{fill:#ee4036;}.cls-4{fill:#f05a28;}.cls-5{fill:#faaf40;stroke-width:0.75px;}.cls-6{fill:none;}</style></defs><title>mouth</title><g id="mouth-03"><path id="fill_color" data-name="fill color" class="cls-1" d="M170.5,168.5S151,177,141,179l-1,.2a112,112,0,0,1-32.68,1.74q-1.88-.18-3.82-.44l6,20a51.86,51.86,0,0,0,26,5c15-1,35-7,41-15Z"/><path class="cls-2" d="M110.5,199.5l2-2s-3-10-4-13-1.87-3.63-1.87-3.63l-3.13-.37,3.38,11.26,2.5,8.33Z"/><path class="cls-3" d="M118,181s3.13,7.7,4.06,9.85,2.31,5.09,2.12,7.12h0l.19,4a72.8,72.8,0,0,1,7.93.57C135,203,144,201,144,201a14.36,14.36,0,0,1-.15-3c.15-1-3.27-16.16-3.27-16.16l-1-2.27L135,180l-9.08,1.13Z"/><path class="cls-4" d="M155.48,174.52,159,185.15l2,9.85v2s10.25-4.55,12.63-6.27L176,189l-3.63-13.65-1.85-6.79Z"/><path class="cls-2" d="M113.5,198.5s2,3,14,4,35-6,35-6S174.56,191,176,188.77l.47,1.73s-7.38,11-40.69,15c0,0-16.31,1-26.31-5l3-3Z"/><path class="cls-5" d="M119.94,181.44s2.56,10.06,3.56,13.06a27.84,27.84,0,0,1,.88,7.67s-7.88.33-11.88-4.67l-5-15a5.38,5.38,0,0,0-1-1.7A80.36,80.36,0,0,0,119.94,181.44Z"/><path class="cls-5" d="M140.5,181.5c0,.14,4.14,18,3.56,19.5,0,0,15.93-2.76,17.18-4.13,0,0-1.75-10.37-2.75-13.37s-3-9-3-9-7.82,3-10.4,3.47a54.09,54.09,0,0,0-5.58,1.51A6,6,0,0,1,140.5,181.5Z"/><path class="cls-6" d="M170.5,168.5S151,177,141,179l-1,.2a112,112,0,0,1-32.68,1.74q-1.88-.18-3.82-.44l6,20a51.86,51.86,0,0,0,26,5c15-1,35-7,41-15Z"/></g></svg>