<svg xmlns="http://www.w3.org/2000/svg" viewBox="0 0 300 300"><defs><style>.cls-1{fill:#26a9e0;}.cls-2{fill-opacity:0.4;stroke-miterlimit:10;}.cls-2,.cls-3{stroke:#000;}.cls-3{fill:#461917;stroke-linecap:round;stroke-linejoin:round;stroke-width:0.5px;}</style></defs><title>mouth</title><g id="mouth-06"><path id="fill_color" data-name="fill color" class="cls-1" d="M149,179s-12,2-15,2-13.5,1.5-15.5,5.5-1,11.5,8,10.5,12-1.5,20-2.5,13-4,14-6,0-5-2-7S154.5,178.5,149,179Z"/><path class="cls-2" d="M149,179s-12,2-15,2-11.5.5-14.5,4.5c-4,4-2,11.5,7,11.5,8,0,12-1.5,20-2.5s13-4,14-6,0-5-2-7S154.5,178.5,149,179Z"/><path class="cls-3" d="M121.5,184.5s-3,4-1,6,4,3,12,2,13-3,18-3,10.83-2.26,9.42-6.13-5.75-5.12-8.58-4.5-12.7,1.53-16.26,2.08-6.7-.1-10.63,1.73S121.5,184.5,121.5,184.5Z"/></g></svg>