<svg xmlns="http://www.w3.org/2000/svg" viewBox="0 0 300 300"><defs><style>.cls-1{fill:#26a9e0;}.cls-2,.cls-4{fill:none;}.cls-2,.cls-3,.cls-4{stroke:#000;stroke-linecap:round;stroke-linejoin:round;}.cls-3{fill-opacity:0.4;}.cls-3,.cls-4{stroke-width:0.75px;}</style></defs><title>mouth</title><g id="mouth-02"><path id="fill_color" data-name="fill color" class="cls-1" d="M126,180a129.54,129.54,0,0,1,3,25,19.93,19.93,0,0,0,10,1,24.23,24.23,0,0,0,8.5-3.5s-4-23-4-25c0,0-6,2-9,2-1.54,0-3.73.13-5.51.26S126,180,126,180Z"/><path class="cls-2" d="M126,180a129.54,129.54,0,0,1,3,25,19.93,19.93,0,0,0,10,1,24.23,24.23,0,0,0,8.5-3.5s-4-23-4-25c0,0-6,2-9,2-1.54,0-3.73.13-5.51.26S126,180,126,180Z"/><path class="cls-3" d="M131.5,190.71a113.49,113.49,0,0,1,1,12.25l-3,1.54s-1-14-2.28-18.07c-.72-2.86-1.15-6.11-1.15-6.11l3.43.18S130.5,182.55,131.5,190.71Z"/><path class="cls-3" d="M129.29,205.11l3.21-1.61a32,32,0,0,0,7-1,53.36,53.36,0,0,0,7.56-2.57l.44,2.57s-4.93,3.27-7,3.14S138.07,207.71,129.29,205.11Z"/><path class="cls-4" d="M131.81,193.42c.93.47,1.84.92,1.69-.92,0,0,0-2,1-2s7-1,7-1a1,1,0,0,1,1,1c0,1,0,3,1,2a3.44,3.44,0,0,1,2.12-1"/></g></svg>