<svg xmlns="http://www.w3.org/2000/svg" viewBox="0 0 300 300"><defs><style>.cls-1{fill:#26a9e0;}.cls-2{fill:#fff;fill-opacity:0.4;}.cls-3,.cls-4{fill:none;}.cls-3,.cls-4,.cls-6{stroke:#000;}.cls-3,.cls-6{stroke-linecap:round;stroke-linejoin:round;}.cls-4{stroke-miterlimit:10;}.cls-5,.cls-6{fill-opacity:0.2;}.cls-6{stroke-width:0.75px;}</style></defs><title>face</title><g id="face-01"><path id="fill_color" data-name="fill color" class="cls-1" d="M144.5,87.5s-51,3-53,55c0,0,0,27,5,42s10,38,10,38l16,16,1,5s13.5-1.5,19-1,14,2,14,2,6-13,19-19,18-8,18-8-4-35-4-52S201.5,88.5,144.5,87.5Z"/><path class="cls-2" d="M115.14,97.69s6.36,5.81-2.64,14.81-16,23-13,44,10,40,10,50-.67,18.19-.67,18.19l-2.33-2.19s-15-45-15-76.5S115.14,97.69,115.14,97.69Z"/><path class="cls-3" d="M144.5,87.5s-51,3-53,55c0,0,0,27,5,42s10,38,10,38l16,16,1,5s9-1,15-1,19,1,19,1a38.06,38.06,0,0,1,18-18c13-6,18-8,18-8s-4-35-4-52S201.5,88.5,144.5,87.5Z"/><path class="cls-4" d="M144.5,86.5s-51,3-53,55c0,0,0,27,5,42s10,38,10,38l16,16,1,5s9-1,15-1,19,1,19,1a38.06,38.06,0,0,1,18-18c13-6,18-8,18-8s-4-35-4-52S201.5,87.5,144.5,86.5Z"/><path class="cls-5" d="M158.5,92.5s20,15,18,32-8,28-12,29a19.27,19.27,0,0,1,8,16c0,11,1,50,1,50l.34,6.83,19.66-8.83s-3.77-39-3.38-63.49,1.38-55.13-31.62-64.82C158.5,89.19,155.5,90.5,158.5,92.5Z"/><path class="cls-3" d="M124.5,211.5l37-1,4.76,21.18s-8.76,8.82-8.76,11.82c-2,1-10-1-18-1a147.84,147.84,0,0,0-16,1S118.5,224.5,124.5,211.5Z"/><path class="cls-6" d="M159.5,212.5a19.89,19.89,0,0,0-4,14c1,8,2,17,2,17l9-12-5-21Z"/></g></svg>