<svg id="face-10" xmlns="http://www.w3.org/2000/svg" viewBox="0 0 300 300"><defs><style>.cls-1{fill:#26a9e0;}.cls-2{fill:#fff;fill-opacity:0.4;}.cls-3{fill:none;}.cls-3,.cls-4{stroke:#000;stroke-miterlimit:10;}.cls-4{fill-opacity:0.2;stroke-width:0.75px;}</style></defs><title>face</title><path id="fill_color" data-name="fill color" class="cls-1" d="M177,71s-73-2-82,51c0,0-4.5,17.5,1.5,40.5s14,50,14,50,6,10,46,6,75-25,75-25-10-100-16-108S203,72,177,71Z"/><path class="cls-2" d="M135.5,78.5s1,4-5,9-20,12-25,31,0,29,2,37,7,25,6,35-4.75,16-4.75,16-21.38-60.92-12.82-89S129,81,135.5,78.5Z"/><path class="cls-3" d="M177,71s-73-2-82,51c0,0-4.5,17.5,1.5,40.5s14,50,14,50,6,10,46,6,75-25,75-25-10-100-16-108S200.5,70.5,177,71Z"/><path class="cls-3" d="M177,70s-73-2-82,51c0,0-4.5,17.5,1.5,40.5s14,50,14,50,6,10,46,6,75-25,75-25-10-100-16-108S200.5,69.5,177,70Z"/><path class="cls-4" d="M205.5,86.5s-27,2-29,28,9,73,9,73l5.38,23.67L231.5,193.5s-8-94-15-106C216.48,87.51,208.5,86.5,205.5,86.5Z"/><circle cx="147.5" cy="214.5" r="1.5"/><circle cx="165.5" cy="211.5" r="1.5"/><circle cx="183.5" cy="206.5" r="1.5"/><circle cx="196.5" cy="202.5" r="1.5"/><circle cx="208.5" cy="198.5" r="1.5"/><circle cx="219.5" cy="194.5" r="1.5"/><circle cx="228.5" cy="190.5" r="1.5"/><circle cx="130.5" cy="214.5" r="1.5"/><circle cx="115.5" cy="210.5" r="1.5"/></svg>