<svg xmlns="http://www.w3.org/2000/svg" viewBox="0 0 300 300"><defs><style>.cls-1{fill:#26a9e0;}.cls-2{fill:none;stroke:#000;stroke-miterlimit:10;}.cls-3,.cls-6{fill:#fff;}.cls-3,.cls-4{fill-opacity:0.2;}.cls-5{fill-opacity:0.1;}.cls-6{fill-opacity:0.4;}</style></defs><title>face</title><g id="face-09"><path id="fill_color" data-name="fill color" class="cls-1" d="M143,89s-39,6-64,66,15.5,70.5,34.5,74.5,85,13,102-27S175.5,85.5,143,89Z"/><path class="cls-2" d="M143,88s-39,6-64,66,15.5,70.5,34.5,74.5,85,13,102-27S175.5,84.5,143,88Z"/><path class="cls-3" d="M99,121.07S122,96,139.5,98.5a137.38,137.38,0,0,1,21.88,7.59s4.12-7.59,6.12-8.59-17-9-23-9C133,89,109.5,104.64,99,121.07Z"/><path class="cls-2" d="M143,89s-39,6-64,66,15.5,70.5,34.5,74.5,85,13,102-27S175.5,85.5,143,89Z"/><path class="cls-4" d="M161.38,106.09a20.31,20.31,0,0,0-1.88,4.41c-1,6,2,11,9,19s20,27,21,45,1,35-13,45-24.21,14.08-24.21,14.08,34.71.42,47.8-19.51c11.41-15.58,10.59-36,0-59.77-11.09-27.31-33.81-44.6-33.81-44.6Z"/><path class="cls-5" d="M167.41,97.44c-2.41-.44-5.91,9.06-5.91,9.06s27,14,39,48,8.86,41,5.43,50-17.62,24.63-36,27.81,37.6-2.82,45.6-29.82c11.5-39.5-22.87-80.23-22.87-80.23S175,101,167.41,97.44Z"/><path class="cls-6" d="M91.5,140.5s-14,24-12,43,12,26,19,31,9.2,13.33,9.2,13.33S72,224,71.08,186.84c0,0,3.19-39.76,30.31-68.55L113.22,108S95.5,132.5,91.5,140.5Z"/><circle cx="138.5" cy="106.5" r="2"/><circle cx="111" cy="115" r="2"/><circle cx="164" cy="117" r="2"/><circle cx="185" cy="136" r="2"/><circle cx="194" cy="158" r="2"/><circle cx="201" cy="181" r="2"/><circle cx="200" cy="205" r="2"/><circle cx="183" cy="218" r="2"/><circle cx="164" cy="223" r="2"/><circle cx="142" cy="223" r="2"/><circle cx="118" cy="221" r="2"/><circle cx="97" cy="218" r="2"/><path class="cls-2" d="M139.5,98.5s35,3,57,48,13.83,72-24.08,85c-54.92,7-79.92-7-91-16.46-1.5.92-21-20.3-3-60.55C95.74,116,122.5,97.5,139.5,98.5Z"/></g></svg>