<svg xmlns="http://www.w3.org/2000/svg" viewBox="0 0 300 300"><defs><style>.cls-1{fill:#26a9e0;}.cls-2{fill:none;stroke:#000;stroke-linecap:round;stroke-linejoin:round;}.cls-3{fill-opacity:0.2;}.cls-4{fill:#fff;fill-opacity:0.4;}</style></defs><title>face</title><g id="face-06"><path id="fill_color" data-name="fill color" class="cls-1" d="M156,83s-55,5-66,53,9.5,66.5,9.5,66.5,9,8,12,8,2-2,1-4a7.47,7.47,0,0,0-3-3s4,1,5,10,1,32,1,38v12s2,8,17,8,30-7,30-7-4-34-2-41,9-20,15-26,3-1,0,2a50.18,50.18,0,0,0-6,8s17-7,23-14,15-10,16-33S214.5,81.5,156,83Z"/><path class="cls-2" d="M156,83s-55,5-66,53,9.5,66.5,9.5,66.5,9,8,12,8,2-2,1-4a7.47,7.47,0,0,0-3-3s4,1,5,10,1,32,1,38v12s2,8,17,8,30-7,30-7-4-34-2-41,9-20,15-26,3-1,0,2a50.18,50.18,0,0,0-6,8s17-7,23-14,15-10,16-33S214.5,81.5,156,83Z"/><path class="cls-2" d="M156,82s-55,5-66,53,9.5,66.5,9.5,66.5,9,8,12,8,2-2,1-4a7.47,7.47,0,0,0-3-3s4,1,5,10,1,32,1,38v12s2,8,17,8,30-7,30-7-4-34-2-41,9-20,15-26,3-1,0,2a50.18,50.18,0,0,0-6,8s17-7,23-14,15-10,16-33S214.5,80.5,156,82Z"/><path class="cls-3" d="M181.5,93.5s18,16,16,44-6,41-28,54c0,0-16,3-19,28s0,49.27,0,49.27l12-4.27s-6.87-36.09.07-46.54,7.21-11.15,17.07-15.3,30.94-21.59,29.4-50.87-.09-56-35.32-67.16l-3.94-.77S168.5,84.5,181.5,93.5Z"/><path class="cls-4" d="M110.5,117.5s-7,1-10,11-11,25-8,35,7,10,9,5,1-17,5-28S116.5,119.5,110.5,117.5Z"/><path class="cls-4" d="M122.5,99.5s-9,6-9,9,0,4,5,4,13-4,13-9S128.5,96.5,122.5,99.5Z"/></g></svg>