<svg xmlns="http://www.w3.org/2000/svg" viewBox="0 0 300 300"><defs><style>.cls-1{fill:#26a9e0;}.cls-2{fill:#fff;fill-opacity:0.4;}.cls-3{fill:none;}.cls-3,.cls-4{stroke:#000;stroke-linecap:round;stroke-linejoin:round;}.cls-4{fill-opacity:0.2;}</style></defs><title>face</title><g id="face-08"><path id="fill_color" data-name="fill color" class="cls-1" d="M212.5,90.5s-19.5-20.5-55-12c-31,8-61,14-64,60a122.71,122.71,0,0,0,4,35c5,19,11,42,12,45,0,0,8,9,25,9s56-10,56-10,11-5,12-6-20-60-11-86c0,0,3-7,14-8s14,0,14,0S217.5,96.5,212.5,90.5Z"/><path class="cls-2" d="M130.5,88.5s-9,6-12,9-16,15-18,28,2,38,4,46,5,21,4,26-2.93,6.66-2.93,6.66S99.5,183.5,97.5,173.5s-6-27-1.52-51S130.5,85.5,130.5,88.5Z"/><path class="cls-3" d="M212.5,90.5s-18.25-20.21-55-12c-31.25,7-61,14-64,60a122.71,122.71,0,0,0,4,35c5,19,11,42,12,45,0,0,8,9,25,9s56-10,56-10,11-5,12-6-20-60-11-86c0,0,3-7,14-8s14,0,14,0S217.5,96.5,212.5,90.5Z"/><path class="cls-3" d="M212.5,89.5s-18-19-55-12c-31.23,7.06-61,14-64,60a122.71,122.71,0,0,0,4,35c5,19,11,42,12,45,0,0,8,9,25,9s56-10,56-10,11-5,12-6-20-60-11-86c0,0,3-7,14-8s14,0,14,0S217.5,95.5,212.5,89.5Z"/><path class="cls-4" d="M209.5,92.5s-15,0-21,6-16,16-13,41,12,65,12,65l3,13,12-6s-22.77-76.47-7.39-90.23c0,0,2.39-4.77,24.39-3.77,0,0-.4-21-5.7-25Z"/><circle cx="211" cy="103" r="1.5"/><circle cx="195.5" cy="207.5" r="1.5"/><circle cx="182.5" cy="213.5" r="1.5"/><circle cx="165.5" cy="217.5" r="1.5"/><circle cx="146.5" cy="220.5" r="1.5"/><circle cx="129.5" cy="220.5" r="1.5"/><circle cx="114.5" cy="216.5" r="1.5"/></g></svg>