<svg xmlns="http://www.w3.org/2000/svg" viewBox="0 0 300 300"><defs><style>.cls-1{fill:#26a9e0;}.cls-2,.cls-4{fill-opacity:0.2;}.cls-3{fill:none;}.cls-3,.cls-4{stroke:#000;stroke-miterlimit:10;}.cls-4,.cls-5{fill:#fff;}.cls-4{stroke-width:0.75px;}.cls-5{fill-opacity:0.4;}</style></defs><title>face</title><g id="face-02"><path id="fill_color" data-name="fill color" class="cls-1" d="M147.5,88.5s-64,9-63,72c0,0-6,51,54,50,0,0,66-6,65-53S172,87,147.5,88.5Z"/><path class="cls-2" d="M154.5,90.5s18,12,25,47,2,48-7,55-24.12,17.37-42.56,17.68c0,0,56.6,1.84,70.58-33.42.73-1.85,1.84-5.7,1.84-5.7S185.5,158.5,183.17,137c-1.67-14.45,2.33-24.45,6.49-24.63a7,7,0,0,0-.63-1.08C179.68,98,160,87,154.5,90.5Z"/><path class="cls-3" d="M147.5,87.5s-64,9-63,72c0,0-6,51,54,50,0,0,66-6,65-53S170.5,85.5,147.5,87.5Z"/><path class="cls-3" d="M147.5,88.5s-64,9-63,72c0,0-6,51,54,50,0,0,66-6,65-53S171.5,86.5,147.5,88.5Z"/><path class="cls-4" d="M92.22,125.67s2.28,14.83.28,24.83-7.67,21-7.67,21S80.94,147.85,92.22,125.67Z"/><path class="cls-4" d="M187.5,113.5s-7,10-4,26,12,27.67,18.5,29.83c0,0,5.83-35.17-12.83-57Z"/><path class="cls-5" d="M112.5,112.5s-5-1-10,6-6,11-5,13,7,1,11-7S114.5,114.5,112.5,112.5Z"/><path class="cls-5" d="M117.5,102.5s-5,4-2,7a6.31,6.31,0,0,0,9,0c2-2,2-6-1-7A10.56,10.56,0,0,0,117.5,102.5Z"/><circle cx="188" cy="143" r="1.5"/><circle cx="193.5" cy="154.5" r="1.5"/><circle cx="199.5" cy="161.5" r="1.5"/><circle cx="88.5" cy="154.5" r="1.5"/><circle cx="89.5" cy="143.5" r="1.5"/><circle cx="90.5" cy="133.5" r="1.5"/><circle cx="186.5" cy="130.5" r="1.5"/><circle cx="190.5" cy="119.5" r="1.5"/></g></svg>