<svg xmlns="http://www.w3.org/2000/svg" viewBox="0 0 300 300"><defs><style>.cls-1{fill:#26a9e0;}.cls-2{fill:none;stroke:#000;stroke-linecap:round;stroke-linejoin:round;}.cls-3{fill-opacity:0.2;}.cls-4{fill:#fff;fill-opacity:0.4;}</style></defs><title>face</title><g id="face-03"><path class="cls-1" d="M147,88c-20.15-.5-56.5,14.5-56.5,57.5,0,0,1,22,6,41s10,34,10,37c0,0,3,12,25,11s62-15,62-15-2-31-3-49S196.79,89.24,147,88Z"/><path class="cls-2" d="M147,88c-20.15-.5-56.5,14.5-56.5,57.5,0,0,1,22,6,41s10,34,10,37c0,0,3,12,25,11s62-15,62-15-2-31-3-49S196.79,89.24,147,88Z"/><path class="cls-2" d="M147,87c-20.15-.5-56.5,14.5-56.5,57.5,0,0,1,22,6,41s10,34,10,37c0,0,3,12,25,11s62-15,62-15-2-31-3-49S196.79,88.24,147,87Z"/><path class="cls-3" d="M135.5,96.5s36-4,45,43c0,0,3,24,3,35s-1,25,1,36l2,11,7-2s-2.53-55.76-3.27-70.88S188.5,90.81,150,88.16c0,0-19.78-1-33.64,8.7,0,0-4.86,4.65.14,2.65S132.5,96.5,135.5,96.5Z"/><path class="cls-4" d="M122.5,104.5s-4,1-4,4,2,7,5,6,5-5,4-7S125.5,103.5,122.5,104.5Z"/><path class="cls-4" d="M115.5,111.5s-9-6-17,12-1,37-1,37,2,6,8,6,4-9,4-9-4-13-1-24,7-13,7-13S120.5,115.5,115.5,111.5Z"/><circle cx="111" cy="223" r="1.5"/><circle cx="125.5" cy="227.5" r="1.5"/><circle cx="141.5" cy="226.5" r="1.5"/><circle cx="159.5" cy="223.5" r="1.5"/><circle cx="175.5" cy="219.5" r="1.5"/><circle cx="188.5" cy="214.5" r="1.5"/></g></svg>