<svg xmlns="http://www.w3.org/2000/svg" viewBox="0 0 300 300"><defs><style>.cls-1{fill:#26a9e0;}.cls-2{fill-opacity:0.2;}.cls-3{fill:#fff;fill-opacity:0.4;}.cls-4{fill:none;stroke:#000;stroke-miterlimit:10;}</style></defs><title>face</title><g id="face-04"><path id="fill_color" data-name="fill color" class="cls-1" d="M148,87s-56.5.5-56.5,63.93,33,84.57,48,84.57,45-8.05,51-41.28c0,0,1-16.11,0-25.17s-1-29.2-1-32.22S186.5,88.51,148,87Z"/><path class="cls-2" d="M151.5,92.5s17,12,22,42,7,44,3,63S167,226,161.75,229.25s21.67-4.94,26.71-26.84,1.77-35.94,1.77-35.94l-1-32.24s-5-35.64-26.88-43.18c0,0-11.87-4.54-17.37-3S148.5,89.5,151.5,92.5Z"/><path class="cls-3" d="M113.5,110.5s-4,0-4,4,4,7,7,5,5-5,4-7S118.5,108.5,113.5,110.5Z"/><path class="cls-3" d="M108.5,123.5s-4-1-7,5-4,15-3,24a33.42,33.42,0,0,0,8,18c2,2,6,3,5-4s-5-14-4-25S114.5,124.5,108.5,123.5Z"/><path class="cls-4" d="M148,87s-56.5.5-56.5,63.5,33,84,48,84,45-8,51-41c0,0,1-16,0-25s-1-29-1-32S186.5,88.5,148,87Z"/><path class="cls-4" d="M148,86s-56.5.5-56.5,63.5,33,84,48,84,45-8,51-41c0,0,1-16,0-25s-1-29-1-32S186.5,87.5,148,86Z"/></g></svg>