<svg xmlns="http://www.w3.org/2000/svg" viewBox="0 0 300 300"><defs><style>.cls-1{fill:#26a9e0;}.cls-2,.cls-6{fill:#fff;}.cls-2{fill-opacity:0.4;}.cls-3,.cls-4{fill:none;stroke:#000;stroke-miterlimit:10;}.cls-3{stroke-width:2px;}.cls-5,.cls-6{fill-opacity:0.2;}</style></defs><title>face</title><g id="face-07"><path id="fill_color" data-name="fill color" class="cls-1" d="M71.5,130.5a51.83,51.83,0,0,0,6,29c8,15,39,71,66,70s76-50,76-93-38-54-77-53S73.5,102.5,71.5,130.5Z"/><path class="cls-2" d="M116.5,88s-24.18,5.5-35.59,20.5-9.79,26-9.1,34.48,8.2,22.55,14.44,33,18.64,28.81,22.95,32.65,11.3,11.84,11.3,11.84.3-6.17-5.85-18.58S83.5,164,81.5,143.74,87.5,101.49,116.5,88Z"/><path class="cls-3" d="M71.5,130.5a51.83,51.83,0,0,0,6,29c8,15,39,71,66,70s76-50,76-93-38-54-77-53S73.5,102.5,71.5,130.5Z"/><path class="cls-4" d="M75.44,115.88S108.5,100.5,140.5,101.5s65,7,67,30-3,34-9,50a89.16,89.16,0,0,1-16.32,27"/><path d="M80,118.5s-1.5,0-1.5,2,1.5,2,1.5,2,1.5,0,1.5-2S80,118.5,80,118.5Z"/><path d="M73,133.5s-1.5,0-1.5,2,1.5,2,1.5,2,1.5,0,1.5-2S73,133.5,73,133.5Z"/><path d="M98,112.5s-1.5,0-1.5,2,1.5,2,1.5,2,1.5,0,1.5-2S98,112.5,98,112.5Z"/><path d="M118,109.5s-1.5,0-1.5,2,1.5,2,1.5,2,1.5,0,1.5-2S118,109.5,118,109.5Z"/><path d="M143,107.5s-1.5,0-1.5,2,1.5,2,1.5,2,1.5,0,1.5-2S143,107.5,143,107.5Z"/><path d="M164,107.5s-1.5,0-1.5,2,1.5,2,1.5,2,1.5,0,1.5-2S164,107.5,164,107.5Z"/><path d="M184,112.5s-1.5,0-1.5,2,1.5,2,1.5,2,1.5,0,1.5-2S184,112.5,184,112.5Z"/><path d="M201,125.5s-1.5,0-1.5,2,1.5,2,1.5,2,1.5,0,1.5-2S201,125.5,201,125.5Z"/><path d="M202,149.5s-1.5,0-1.5,2,1.5,2,1.5,2,1.5,0,1.5-2S202,149.5,202,149.5Z"/><path d="M195,173.5s-1.5,0-1.5,2,1.5,2,1.5,2,1.5,0,1.5-2S195,173.5,195,173.5Z"/><path d="M185,195.5s-1.5,0-1.5,2,1.5,2,1.5,2,1.5,0,1.5-2S185,195.5,185,195.5Z"/><path d="M169,210.5s-1.5,0-1.5,2,1.5,2,1.5,2,1.5,0,1.5-2S169,210.5,169,210.5Z"/><path d="M141,220.5s-1.5,0-1.5,2,1.5,2,1.5,2,1.5,0,1.5-2S141,220.5,141,220.5Z"/><path d="M115,209.5s-1.5,0-1.5,2,1.5,2,1.5,2,1.5,0,1.5-2S115,209.5,115,209.5Z"/><path class="cls-5" d="M199.5,115.5l-9-5.07S188,110,191,120s6.5,25.5,4.5,40.5-7,27-19,40-17.37,20.78-17.19,23.89S184.5,208.5,188.5,202.5s11.93-23.83,16-39S211.5,124.5,199.5,115.5Z"/><path class="cls-6" d="M201,100l-10,10s-23.39-8.18-41.7-8.09-33.49-1.25-53.4,6.42L76,116s-.08-2.83,6.71-9.66,18-18.34,48.89-22.09,49.94,2.2,58.92,6.73,12,7.09,12,7.09Z"/></g></svg>