<svg xmlns="http://www.w3.org/2000/svg" viewBox="0 0 300 300"><defs><style>.cls-1{fill:#26a9e0;}.cls-2{opacity:0.4;}.cls-3{fill:#461917;}.cls-3,.cls-4,.cls-5{stroke:#000;}.cls-3,.cls-5{stroke-linecap:round;stroke-linejoin:round;}.cls-3,.cls-4{stroke-width:0.5px;}.cls-4{fill:#ec1c24;stroke-miterlimit:10;}.cls-5{fill:none;stroke-width:0.75px;}</style></defs><title>eyes</title><g id="eyes-03"><path class="cls-1" d="M135.5,123.5s-34,1-35,17,23,12,23,12,23-2,28-3,18-5,18-14-8-13-17-13S139.5,123.5,135.5,123.5Z"/><path class="cls-2" d="M117.31,152.44c-4.51,0-10.59-.74-13.91-4.27a9.8,9.8,0,0,1-2.41-7.64c1-15.37,34.18-16.52,34.52-16.53h0c1.61,0,3.25-.16,5.15-.35A107.89,107.89,0,0,1,152.5,123c8,0,16.5,3.28,16.5,12.5,0,9.71-15.8,13.15-17.6,13.51-4.92,1-27.72,3-27.95,3a42,42,0,0,1-6.14.44Z"/><path d="M152.5,123.5c7.73,0,16,3.15,16,12,0,7.56-10.81,11.74-17.2,13-4.89,1-27.66,3-27.89,3h-.08a41.19,41.19,0,0,1-6,.43c-4.41,0-10.35-.71-13.54-4.12a9.32,9.32,0,0,1-2.27-7.27c.93-14.91,33.7-16.05,34-16.06,1.65,0,3.3-.17,5.22-.36a107.45,107.45,0,0,1,11.78-.64m0-1c-9,0-13,1-17,1,0,0-34,1-35,17-.67,10.67,9.78,12.44,16.81,12.44a41.73,41.73,0,0,0,6.19-.44s23-2,28-3,18-5,18-14-8-13-17-13Z"/><path class="cls-3" d="M106.5,132.5s-2,2-1,6,2,9,16,8a306.78,306.78,0,0,0,31-4c6-1,16-1.5,17-6.25s-2.18-11.89-12.09-13.32-12.93-.11-16.92.23-8.25.45-11.62.89-16.37,2.44-22.37,8.44"/><path class="cls-4" d="M134,124s-4,2-4,6,3.5,11.5,10.5,10.5,9-5,9-11-6.58-6.54-6.58-6.54-3.42.54-4.42.54S134,124,134,124Z"/><ellipse cx="140" cy="130.5" rx="2" ry="2.5"/><path class="cls-5" d="M107.5,131.5s-3,2-2,7c1,4,2,9,16,8a306.78,306.78,0,0,0,31-4c6-1,16-1.5,17-6.25s-2.18-11.89-12.09-13.32-12.93-.11-16.92.23-8.25.45-11.62.89-15.37,1.44-21.37,7.44"/></g></svg>