<svg id="eyes-10" xmlns="http://www.w3.org/2000/svg" viewBox="0 0 300 300"><defs><style>.cls-1{fill:#26a9e0;}.cls-2{fill:#fff;}.cls-2,.cls-4{fill-opacity:0.4;}.cls-3{fill:none;}.cls-3,.cls-4{stroke:#000;stroke-linecap:round;stroke-linejoin:round;}.cls-4{stroke-width:0.75px;}</style></defs><title>eyes</title><path id="fill_color" data-name="fill color" class="cls-1" d="M129.5,123.5s-30,3-31,15,8,13,15,14,20-2,26-3,25,1,27-13-17-14-17-14Z"/><path class="cls-2" d="M116.92,125.8s-15.42,2.7-16.42,12.7,15.5,13,24.25,10.5A97.37,97.37,0,0,1,150,145.44c6.5.06,16.78-3.69,16.64-11.31S157.5,122.5,149.5,122.5s-21.12,1.13-21.12,1.13Z"/><path class="cls-2" d="M130.5,123.5l-8,25.5c1.6-.06,5.38-.65,9-1.2l7-24.8A47.26,47.26,0,0,1,130.5,123.5Z"/><polygon class="cls-2" points="120.77 124.91 113 150 118 150 125.41 124.06 120.77 124.91"/><path class="cls-3" d="M129.5,123.5s-30,3-31,15,8,13,15,14,20-2,26-3,25,1,27-13-17-14-17-14Z"/><path class="cls-4" d="M106.61,129.46s-6.11,3-6.11,9,5,13,20,11,23-4,28-4,17.29-2.5,18.15-10.25c0,0,.3,10.92-14.42,13.09s-16.25,1.2-21,2.68-28.06,4.23-32.4-7.15C98.84,143.87,95.71,134.43,106.61,129.46Z"/></svg>