<svg xmlns="http://www.w3.org/2000/svg" viewBox="0 0 300 300"><defs><style>.cls-1{fill:#26a9e0;}.cls-2{fill-opacity:0.55;stroke-miterlimit:10;stroke-width:0.75px;}.cls-2,.cls-3{stroke:#000;}.cls-3{fill:#461917;stroke-linecap:round;stroke-linejoin:round;stroke-width:0.5px;}.cls-4{fill:#ec1c24;}</style></defs><title>eyes</title><g id="eyes-06"><g id="fill_color" data-name="fill color"><path class="cls-1" d="M112.71,130l-.49,0c-2.46,0-13.35.38-14.22,11-1,12,8.33,13.5,12.26,13.5s12.75-3,12.75-13C123,130.5,112.71,130,112.71,130Z"/><path class="cls-1" d="M156.71,130l-.49,0c-2.46,0-13.35.38-14.22,11-1,12,8.33,13.5,12.26,13.5s12.75-3,12.75-13C167,130.5,156.71,130,156.71,130Z"/></g><path class="cls-2" d="M112.71,130l-.49,0c-2.46,0-13.35.38-14.22,11-1,12,8.33,13.5,12.26,13.5s12.75-3,12.75-13C123,130.5,112.71,130,112.71,130Z"/><path class="cls-3" d="M111.23,130.5s-9.8,1-9.8,10,4.9,11,10.78,11a11,11,0,0,0,10.78-11C123,134.5,117.12,130.5,111.23,130.5Z"/><ellipse class="cls-4" cx="112.22" cy="140.5" rx="1.96" ry="3"/><path class="cls-2" d="M156.71,130l-.49,0c-2.46,0-13.35.38-14.22,11-1,12,8.33,13.5,12.26,13.5s12.75-3,12.75-13C167,130.5,156.71,130,156.71,130Z"/><path class="cls-3" d="M155.23,130.5s-9.8,1-9.8,10,4.9,11,10.78,11a11,11,0,0,0,10.78-11C167,134.5,161.12,130.5,155.23,130.5Z"/><ellipse class="cls-4" cx="156.22" cy="140.5" rx="1.96" ry="3"/></g></svg>