<svg xmlns="http://www.w3.org/2000/svg" viewBox="0 0 300 300"><defs><style>.cls-1{fill:#26a9e0;}.cls-2{fill-opacity:0.4;stroke-miterlimit:10;}.cls-2,.cls-3,.cls-5{stroke:#000;}.cls-2,.cls-5{stroke-width:0.75px;}.cls-3,.cls-5{fill:#461917;stroke-linecap:round;stroke-linejoin:round;}.cls-3{stroke-width:0.5px;}.cls-4{fill:#ec1c24;}</style></defs><title>eyes</title><g id="eyes-05"><path id="fill_color" data-name="fill color" class="cls-1" d="M131.5,119.5c-5,0-19,2-19,16,0,15,10,18,18,18s17-7,16-19S136.5,119.5,131.5,119.5Z"/><path class="cls-2" d="M131.5,119.5c-5,0-19,2-19,16,0,15,10,18,18,18s17-7,16-19S136.5,119.5,131.5,119.5Z"/><path class="cls-2" d="M132,124l-.5,0c-2.51,0-13.61.38-14.5,11-1,12,8.5,13.5,12.5,13.5s13-3,13-13C142.5,124.5,132,124,132,124Z"/><path class="cls-3" d="M130.5,124.5s-10,1-10,10,5,11,11,11a11.1,11.1,0,0,0,11-11C142.5,128.5,136.5,124.5,130.5,124.5Z"/><ellipse class="cls-4" cx="131.5" cy="134.5" rx="2" ry="3"/><path class="cls-5" d="M147.5,133.5h6s1,0,0,1a7.69,7.69,0,0,1-3,2h-4v-2Z"/><path class="cls-5" d="M112.49,135.15a29.28,29.28,0,0,1-3.29.35c-1.1,0-1.7,1-2.2,2a.79.79,0,0,0,.2.57,1.56,1.56,0,0,0,.94.36,18.66,18.66,0,0,0,2.15.07c2.2,0,2.32-.35,2.32-.35Z"/></g></svg>