<svg xmlns="http://www.w3.org/2000/svg" viewBox="0 0 300 300"><defs><style>.cls-1{fill:#26a9e0;}.cls-2,.cls-3{fill:#fff;}.cls-2{fill-opacity:0.4;}.cls-3{fill-opacity:0.2;}.cls-3,.cls-4,.cls-5{stroke:#000;stroke-miterlimit:10;}.cls-4{fill:none;}.cls-4,.cls-5{stroke-width:0.75px;}.cls-5{fill:red;}</style></defs><title>eyes</title><g id="eyes-04"><path id="fill_color" data-name="fill color" class="cls-1" d="M127.5,127.5c11.08-.53,43-2,43,11,1,15-16.69,15-23.34,15.52s-37.66,1.48-47.66.48-15-4-15-12,8-11,17-13S121,127.81,127.5,127.5Z"/><path class="cls-2" d="M94.39,132.09s2.78-4.25,37.95-4.92,37.17,6.33,38.17,11.33-3,10.76-6,11.88c0,0,5.52-6.38-2.24-11.63s-22.72-6.58-29.74-6.91-24.86-.88-27.94-.61S96.28,131.67,94.39,132.09Z"/><path class="cls-3" d="M127.5,127.5c11.08-.53,43-2,43,11,1,15-16.69,15-23.34,15.52s-37.66,1.48-47.66.48-15-4-15-12,8-11,17-13S121,127.81,127.5,127.5Z"/><path class="cls-4" d="M121.5,131.5c-19,0-36-3-37,11s19,12,40,12,42,0,42-9C166.5,134.5,140.5,131.5,121.5,131.5Z"/><path class="cls-5" d="M121.5,140.5s29,0,32,1,2,4-1,4-22-1-31-1-22,1-26,0-1-2,11-3S121.5,140.5,121.5,140.5Z"/></g></svg>