<svg xmlns="http://www.w3.org/2000/svg" viewBox="0 0 300 300"><defs><style>.cls-1{fill:#26a9e0;}.cls-2{fill-opacity:0.4;}.cls-2,.cls-3{stroke:#000;stroke-linecap:round;stroke-linejoin:round;}.cls-3{fill:#461917;stroke-width:0.5px;}</style></defs><title>eyes</title><g id="eyes-01"><g id="fill_color" data-name="fill color"><path class="cls-1" d="M144.5,141.5s5,9,9,7,13-9,13-9v-9s-2-1-7,0-14,5-14,5S142.5,137.5,144.5,141.5Z"/><path class="cls-1" d="M118,141l-5,10s-7.5-2.5-10.5-4.5-4-3-4-6l1-3a13.6,13.6,0,0,1,7,0c4,1,11,2,11,2S118.5,139.5,118,141Z"/></g><path class="cls-2" d="M144.5,141.5s5,9,9,7,13-9,13-9v-9s-2-1-7,0-14,5-14,5S142.5,137.5,144.5,141.5Z"/><path class="cls-3" d="M144.5,139.5s2,2,6,1,10-6,12-7a18.66,18.66,0,0,0,4-3s-3.22-1-9.11.52a67.92,67.92,0,0,0-11.89,4.48S142.5,137.5,144.5,139.5Z"/><path class="cls-2" d="M118,141l-5,10s-7.5-2.5-10.5-4.5-4-3-4-6l1-3a13.6,13.6,0,0,1,7,0,37.46,37.46,0,0,0,8,1S118.5,139.5,118,141Z"/><path class="cls-3" d="M100.5,139.5l6,3c2,1,9.7,2.6,11.35-1.2s-11.6-4.69-16-4.24c0,0-3-.17-2.67.94A2.3,2.3,0,0,0,100.5,139.5Z"/></g></svg>