<svg xmlns="http://www.w3.org/2000/svg" viewBox="0 0 300 300"><defs><style>.cls-1{fill:#26a9e0;}.cls-2{fill-opacity:0.6;}.cls-2,.cls-3,.cls-4,.cls-5,.cls-6{stroke:#000;}.cls-2,.cls-3,.cls-4,.cls-6{stroke-linecap:round;stroke-linejoin:round;}.cls-3{fill:#461917;}.cls-3,.cls-4,.cls-5{stroke-width:0.5px;}.cls-4,.cls-5{fill:#f9ec31;}.cls-5{stroke-miterlimit:10;}.cls-6{fill:none;}</style></defs><title>eyes</title><g id="eyes-07"><path id="fill_color" data-name="fill color" class="cls-1" d="M99.5,142.5s0-10,12-14,26-4,26-4,20-1,25,2,5,9,5,11-2,11-19,13-33,3-33,3S99.5,153.5,99.5,142.5Z"/><path class="cls-2" d="M99.5,142.5s0-10,12-14,26-4,26-4,20-1,25,2,5,9,5,11-2,11-19,13-33,3-33,3S99.5,153.5,99.5,142.5Z"/><path class="cls-3" d="M107.16,130.47S105,133,105,138s2,9,8,10,20.5-1.5,20.5-1.5,11-2,18-2,15.74-2.78,15.87-5.89-.17-7.11-2.52-10.11-7.12-3.56-10.24-3.78-12.52-.54-14.82-.38-10.17.47-12.23.81-7.31,1.1-7.31,1.1l-7.61,1.87S107.83,129.44,107.16,130.47Z"/><path class="cls-4" d="M109,135s-1,11,10,10,10-10,10-10,0-6-3-8-2.85-1.25-2.85-1.25-11.28,2.64-12.21,2.94S109,133,109,135Z"/><path class="cls-5" d="M142,125s-3,2-3,7,3.5,10.5,9.5,10.5,12-4,12-10-3.66-7.5-3.66-7.5l-4.78-.47-4.22-.16h-3.44l-1.91.13Z"/><path d="M119.42,133s-1.17,0-1.17,2.5,1.17,2.5,1.17,2.5a2.51,2.51,0,0,0,0-5Z"/><path d="M150.08,130a1.8,1.8,0,0,0-1.82,1.94c-.07,2,.78,3,1.65,3.06s1.78-.94,1.85-2.94a1.8,1.8,0,0,0-1.68-2.06"/><path class="cls-6" d="M99.5,142.5s0-10,12-14,26-4,26-4,20-1,25,2,5,9,5,11-2,11-19,13-33,3-33,3S99.5,153.5,99.5,142.5Z"/></g></svg>