<svg xmlns="http://www.w3.org/2000/svg" viewBox="0 0 300 300"><defs><style>.cls-1{fill:#26a9e0;}.cls-2{fill-opacity:0.4;stroke-miterlimit:10;}.cls-2,.cls-3,.cls-4{stroke:#000;}.cls-3,.cls-4{fill:#461917;stroke-linecap:round;stroke-linejoin:round;}.cls-3{stroke-width:0.5px;}.cls-4{stroke-width:0.75px;}</style></defs><title>eyes</title><g id="eyes-08"><path id="fill_color" data-name="fill color" class="cls-1" d="M110,135s-1.5,6.5.5,6.5h45v-6s0-2-3-2h-38C111.5,133.5,110.5,133.5,110,135Z"/><path class="cls-2" d="M110,135s-1.5,6.5.5,6.5h45v-6s0-2-3-2h-38C111.5,133.5,110.5,133.5,110,135Z"/><path class="cls-3" d="M110.83,133.88a25.17,25.17,0,0,0,2.67,4.62c1,1,5,0,9,0h31s2-.12,2,.94V135.5s0-2-3-2H113.31Z"/><line class="cls-4" x1="113.5" y1="138.5" x2="109.9" y2="141.21"/></g></svg>