<svg xmlns="http://www.w3.org/2000/svg" viewBox="0 0 300 300"><defs><style>.cls-1{fill:#26a9e0;}.cls-2{fill:none;}.cls-2,.cls-3,.cls-4,.cls-6{stroke:#000;stroke-linecap:round;stroke-linejoin:round;}.cls-2,.cls-4,.cls-6{stroke-width:0.75px;}.cls-3{fill:#461917;stroke-width:0.5px;}.cls-4{fill-opacity:0.4;}.cls-5{fill:#fff100;}.cls-6{fill:#fff;fill-opacity:0.2;}</style></defs><title>eyes</title><g id="eyes-09"><path id="fill_color" data-name="fill color" class="cls-1" d="M127.5,124.5s-43-1-45,16c-1.5,15.5,25,13,25,13h35s27,0,27-13S158.5,123.5,127.5,124.5Z"/><path class="cls-2" d="M127.5,124.5s-43-1-45,16c-1,15,21,13,25,13h35s27,0,27-13S158.5,123.5,127.5,124.5Z"/><path class="cls-3" d="M126,132c-15.5.5-28.5-1.5-30.5,6.5-2,9,16,7,22,7s27-1,30-1,10-1,10-3C157.5,133.5,142.5,131.5,126,132Z"/><path class="cls-4" d="M90.5,140.5c0,1-5,9,32,8s35-4.33,35-7.67-8.64-9.23-21.32-8.78S95.5,128.5,90.5,140.5Z"/><ellipse class="cls-5" cx="112" cy="139" rx="2.5" ry="3.5"/><ellipse class="cls-5" cx="138" cy="139" rx="2.5" ry="3.5"/><path class="cls-6" d="M93.5,129.5s27-3,41-2c11,0,24,3,29,10s1.39,10.59-.3,11.8,6.3-2.8,6.3-8.8-1.61-11.29-14.3-14.65-30.2-1.18-33.95-1.26S98.5,126.5,93.5,129.5Z"/></g></svg>