<svg xmlns="http://www.w3.org/2000/svg" viewBox="0 0 300 300"><defs><style>.cls-1{fill:#26a9e0;}.cls-2,.cls-5{fill:none;}.cls-2,.cls-5,.cls-6,.cls-7,.cls-8,.cls-9{stroke:#000;}.cls-2{stroke-linecap:round;stroke-linejoin:round;}.cls-3,.cls-6,.cls-7{fill-opacity:0.2;}.cls-4,.cls-6{fill:#fff;}.cls-4{fill-opacity:0.4;}.cls-5,.cls-6,.cls-7,.cls-8,.cls-9{stroke-miterlimit:10;}.cls-8{fill:#f9ec31;}.cls-9{fill:#6d6e70;}</style></defs><title>body</title><g id="body-07"><g id="fill_color" data-name="fill color"><path class="cls-1" d="M158.5,234.5s-59,1-84,42,23,42,23,42l132-13s-5-16,5-27,19-6,19-6S219.5,231.5,158.5,234.5Z"/><path class="cls-1" d="M277.5,301.5c-.33-7.3-4.07-15.56-12-25,0,0-11.5-7.5-25.28-2.69-7.72,4.69-13.72,11.69-11.72,28.69Z"/><path class="cls-1" d="M74.5,276.5a29.05,29.05,0,0,0-26,16c-9,17,10,17,10,17l8.79-9.5S64.5,293.5,74.5,276.5Z"/></g><path class="cls-2" d="M158.5,234.5s-59,1-84,42,23,42,23,42l132-13s-5-16,5-27,19-7,19-7S219.5,231.5,158.5,234.5Z"/><path class="cls-3" d="M215,245s6.5,1.46-.5,16.46-13,26-10,41,24.32,0,24.32,0-3.6-15.79,7-25.4c12.91-11.65,19.71-3.56,16.64-5.6C252.5,271.5,235.49,253.58,215,245Z"/><path class="cls-2" d="M158.5,234.5s-59,1-84,42,23,42,23,42l132-13s-5-16,5-27c7-9,19-7,19-7S219.5,231.5,158.5,234.5Z"/><path class="cls-4" d="M62.5,280.5s5,0,0,9-8,11-9,14-6.5-2.33-6.5-2.33-3.23-4.81,5.63-14.74C52.63,286.43,57.5,280.5,62.5,280.5Z"/><path class="cls-5" d="M74.5,276.5a29.05,29.05,0,0,0-26,16c-9,17,10,17,10,17l8.79-9.5S64.5,293.5,74.5,276.5Z"/><path class="cls-4" d="M77.5,301.5s0-19,13-30,16-5,15-2-14,24-14,32S77.5,301.5,77.5,301.5Z"/><path class="cls-5" d="M277.5,301.5s-5-39-37.28-27.69c-7.72,4.69-13.72,11.69-11.72,28.69Z"/><path class="cls-3" d="M261.5,304.5s4-7,3-15-8.36-16.57-8.36-16.57a25.86,25.86,0,0,1,18.77,16.29,27.17,27.17,0,0,1,2.58,15.29Z"/><path class="cls-6" d="M103.5,303.5s2-30,41-29,41,29,41,29H174.25c-.75-2-12.12-18.58-30.75-18-15.88-.37-26.93,4.64-30.5,18Z"/><path class="cls-7" d="M113.5,301.5s3-16,28-16,32,17,32,17Z"/><path class="cls-8" d="M118.5,300.5s9-12,24-11,24,12,24,12Z"/><circle cx="125.5" cy="283.5" r="1"/><circle cx="113" cy="291" r="1"/><circle cx="148" cy="280" r="1"/><circle cx="170" cy="289" r="1"/><path class="cls-9" d="M147,200s0,44,1,45a14.41,14.41,0,0,0,14,4c8-2,7-7,7-7a144.32,144.32,0,0,1-2.5-24.5v-19S148.5,198.5,147,200Z"/><path class="cls-3" d="M159.5,202.5s1,17,2,23,2,22.83-2,23.91c0,0,9.62-.9,9.31-8.41s-2.43-19.17-2.37-30.34.06-12.17.06-12.17l-7,.11Z"/><path class="cls-5" d="M147,233.5s1.08,3,5.4,3,12.83-1.33,15-4.66"/><path class="cls-5" d="M147.5,219.32s1,2.68,5,2.68,11.89-1.18,13.94-4.16"/><path class="cls-5" d="M147.5,208.07s1,1.93,5,1.93,11.89-.85,13.94-3"/></g></svg>