<svg xmlns="http://www.w3.org/2000/svg" viewBox="0 0 300 300"><defs><style>.cls-1{fill:#26a9e0;}.cls-2{fill:#fff;}.cls-2,.cls-6{fill-opacity:0.2;}.cls-3{fill:none;}.cls-3,.cls-4{stroke:#000;stroke-miterlimit:10;}.cls-4{fill:#6d6e70;}.cls-5{opacity:0.2;}</style></defs><title>body</title><g id="body-02"><path id="fill_color" data-name="fill color" class="cls-1" d="M160.5,246.5s-14-3-27,13-22,45-22,45h108s-20-35-25-40S176.5,247.5,160.5,246.5Z"/><path class="cls-2" d="M121.5,303.5s5-24,10-33,3.28-8.07,7.64-8.53,15.13-1.22,23.75,2.66,8.18,3.25,8.18,3.25l13.12-12.15s-12.68-9.66-26.18-9.44-23.5,12.22-26.5,15.22-14.17,23.45-19.09,40.22Z"/><path class="cls-3" d="M145.5,261.5s28,1,38,17,13,26,13,26h-86s13.77-34.15,18.39-38.57S144.5,261.5,145.5,261.5Z"/><path class="cls-2" d="M121.5,303.5s5-24,10-33,3.28-8.07,7.64-8.53c22.36-1.47,31.93,5.9,31.93,5.9l13.12-12.15s-12.68-9.66-26.18-9.44-23.5,12.22-26.5,15.22-14.17,23.45-19.09,40.22Z"/><path class="cls-3" d="M160.5,246.5s-14-3-27,13-22,45-22,45h108s-20-35-25-40S176.5,247.5,160.5,246.5Z"/><path class="cls-4" d="M149,192s1,62,2,64a11.16,11.16,0,0,0,9.06,3.21c5.44-.71,6.44-2.71,6.94-5.21,0,0-2.5-48.5-2.5-62.5Z"/><path class="cls-5" d="M159.5,191.5s3,36,3,40,1,27,1,27l3-1-2-66Z"/><path class="cls-3" d="M164.5,203.5a8.76,8.76,0,0,1-6,2c-4,0-8,0-9-1"/><path class="cls-3" d="M165.5,214.5a12.68,12.68,0,0,1-6,2c-3,0-7,.25-10-1.37"/><path class="cls-3" d="M165.8,225.5a10.11,10.11,0,0,1-6.3,2c-4,0-7.65-.2-9.82-2.1"/><path class="cls-3" d="M166,234.5s-.5,3-5.5,3a64.39,64.39,0,0,1-10.3-1"/><path class="cls-3" d="M166.5,245.5s-1,3-6,3a21.51,21.51,0,0,1-10-2"/><path class="cls-6" d="M195.58,301.91H218S203,275.78,198.73,270.14,186.5,256.5,184.5,255.5l-13,12s8,4.69,10.48,8.84S192.66,293.32,195.58,301.91Z"/><path class="cls-4" d="M193.5,272.5a6.85,6.85,0,0,0-2,8c2,5,8,6,8,6s7-6,15-2,9,7,9,15,14,3,14,3l2-2s4-21-19-31C220.5,269.5,209.5,265.5,193.5,272.5Z"/><path class="cls-6" d="M196.5,284.5a25.68,25.68,0,0,1,18-5c11,1,16,9,18,17s-4,10-4,10l-5-7s.05-13.88-10-15.44-14,2.44-14,2.44S195.5,286.5,196.5,284.5Z"/><path class="cls-3" d="M206,268.82a2.89,2.89,0,0,0-1.5,2.68c0,2,.1,8.87,7,11.94"/><path class="cls-3" d="M229.44,274.89s-3.94-1.39-5.94,1.61-3.62,9.25-2.81,12.13"/><path class="cls-3" d="M223.56,300.34c-.06.16.94-2.84,5.94-2.84a21.66,21.66,0,0,1,10.09,2.37"/><path class="cls-4" d="M127.07,268.36S108.5,263.5,98.5,279.5c0,0-5,9,1,20s7,4,7,4l7-5.25s-6-7.75-2-13.75c0,0,2.75-4.25,8.88-3.12Z"/><path class="cls-3" d="M119.5,281.5s2-7,1-10a5.45,5.45,0,0,0-3.56-3.62"/><path class="cls-3" d="M111.5,284.5a14.54,14.54,0,0,0-8-5c-5-1-5.44.94-5.44.94"/><path class="cls-3" d="M111,293.56a10.89,10.89,0,0,0-7.48.94c-4,2-4,5-4,5"/><path class="cls-6" d="M123.53,274.89s-7-2.39-13,.61-9,7-9,12,5,12,7,14,4.83-3.86,4.83-3.86-3.83-5.14-2.83-11.14c0,0,1-6,10-5Z"/><circle cx="145" cy="266" r="1.5"/><circle cx="160.5" cy="268.5" r="1.5"/><circle cx="173.5" cy="274.5" r="1.5"/><circle cx="182.5" cy="285.5" r="1.5"/><circle cx="188.5" cy="296.5" r="1.5"/><circle cx="133.5" cy="266.5" r="1.5"/></g></svg>