<svg xmlns="http://www.w3.org/2000/svg" viewBox="0 0 300 300"><defs><style>.cls-1{fill:#26a9e0;}.cls-2{fill:none;}.cls-2,.cls-4{stroke:#000;stroke-miterlimit:10;}.cls-3,.cls-6{fill-opacity:0.2;}.cls-4{fill:#6d6e70;}.cls-5,.cls-6{fill:#fff;}.cls-5{fill-opacity:0.4;}</style></defs><title>body</title><g id="body-05"><g id="fill_color" data-name="fill color"><path class="cls-1" d="M137.41,252.15s-.91-4.65-11.91-3.65-13,12-13,18,4,13,12,14c0,0,3,0,3-1,0,0-3.17-6.44.41-16.72C127.91,262.78,133.33,254.8,137.41,252.15Z"/><path class="cls-1" d="M194.5,244.5s-19,1-19,17,11,21,17,21,20-2,19-20S194.5,244.5,194.5,244.5Z"/><path class="cls-1" d="M181.5,247.5a39.32,39.32,0,0,0-24-4c-14,2-28,14-30,19s-3,9,0,17,3,20,1,22h68s.68-18.41-.66-19.2c0,0-21.34,1.2-20.34-19.8a13.88,13.88,0,0,1,6.67-13.88Z"/></g><path class="cls-2" d="M194.5,244.5s-19,1-19,17,11,21,17,21,20-2,19-20S194.5,244.5,194.5,244.5Z"/><path class="cls-3" d="M195.5,245.5s8,5,6,18-9.78,17.77-14.39,17.89c0,0,21.41,6.8,24.4-15.54C211.51,265.84,212.5,245.5,195.5,245.5Z"/><path class="cls-2" d="M181.5,247.5a39.32,39.32,0,0,0-24-4c-14,2-28,14-30,19s-3,9,0,17,3,20,1,22h68s.68-18.41-.66-19.2c0,0-21.34,1.2-20.34-19.8a13.88,13.88,0,0,1,6.67-13.88Z"/><path class="cls-4" d="M195.5,282.5s7,11,6,19h12s2.5-15-7.25-23.5C206.25,278,203.5,282.5,195.5,282.5Z"/><path class="cls-2" d="M211.55,285.39s.73,7.21-11.66,6.16"/><path class="cls-5" d="M136.5,260.5a3.1,3.1,0,0,0-2,1c-1,1-3,5,0,5s4-1,4-3S137.5,260.5,136.5,260.5Z"/><path class="cls-5" d="M133.5,270.5a4.33,4.33,0,0,0-2,4c0,3,1,6,2,12s.67,14-1.67,15,6.67,0,6.67,0,4-16,0-25C138.5,276.5,136.5,269.5,133.5,270.5Z"/><path class="cls-3" d="M161.5,253.5s9,2,11,10,2,28,2,28v12l22,1v-19a4.38,4.38,0,0,0-1-3s-22-1-20-21c0,0,0-9,7-13a35,35,0,0,0-14.06-5.07l.06,5.07A10.39,10.39,0,0,1,161.5,253.5Z"/><path class="cls-2" d="M141.34,249.41s3.16,11.09,16.16,11.09,19.07-10,19-15"/><path class="cls-2" d="M144.5,301.5s2-12,1-18l23-1s1,17,0,19"/><path class="cls-2" d="M137.41,252.15s-.91-4.65-11.91-3.65-13,12-13,18,4,13,12,14c0,0,3,0,3-1C123.29,273.33,124.5,260.5,137.41,252.15Z"/><path class="cls-6" d="M118.5,252.5s5-3,3,1-5,5-6,11,4,11,4,11,2,2-1,2-7.7-8-5.35-17A16.51,16.51,0,0,1,118.5,252.5Z"/><path class="cls-4" d="M119.36,278.79s-3.86,5.71-4.86,10.71,1,12,1,12h10s-1-7,1-12,2.48-4.68,2.48-4.68l-1.48-5.32s-1.27,1.4-4.63.7-3.87-1.4-3.87-1.4"/><path class="cls-2" d="M114.92,286.75s3.58,4.75,11.58,2.75"/><circle cx="158.5" cy="257.5" r="1"/><circle cx="150" cy="255" r="1"/><circle cx="146" cy="251" r="1"/><circle cx="168" cy="254" r="1"/><circle cx="172" cy="247" r="1"/><path class="cls-3" d="M125,280.39s-4.48,3.61-3.22,21.11H125s-1-11.5,4-16.5l-1.58-5.08Z"/><path class="cls-3" d="M202,281.28S209,293,209,302s4.79-1.37,4.79-1.37S215,286,206,278A6.19,6.19,0,0,1,202,281.28Z"/><path class="cls-4" d="M147,200s-1,42,2,50c0,0,12,9,20-2,0,0-3.5-26.5-3.5-48.5A77.11,77.11,0,0,0,147,200Z"/><path class="cls-2" d="M166,211.5s-1.08,3-8.68,3-10.48-1.37-10.48-1.37"/><path class="cls-2" d="M166,223.5s-1.08,3-8.68,3-10.48-1.37-10.48-1.37"/><path class="cls-2" d="M147.5,238.5a15.39,15.39,0,0,0,8,2c5,0,11.32-1.58,12.16-4.29"/><path class="cls-3" d="M158.67,199.17s.83,11.33,1.83,18.33,2,15,2,20,.33,13.93-1.33,16c0,0,4.33,0,7.33-6,0,0-3-26-3-33v-15Z"/><circle cx="148" cy="286" r="0.5"/><circle cx="165.5" cy="285.5" r="0.5"/></g></svg>