<svg xmlns="http://www.w3.org/2000/svg" viewBox="0 0 300 300"><defs><style>.cls-1{fill:#26a9e0;}.cls-2{fill:#020202;}.cls-2,.cls-4,.cls-6,.cls-7{fill-opacity:0.4;}.cls-3{fill-opacity:0.2;}.cls-4,.cls-6{fill:#fff;}.cls-4,.cls-5,.cls-8{stroke:#000;stroke-miterlimit:10;}.cls-5{fill:none;}.cls-8{fill:#6d6e70;}</style></defs><title>body</title><g id="body-08"><g id="fill_color" data-name="fill color"><path class="cls-1" d="M125.5,286.5s-5,5-4,15l83,1s-2-19-13-22-16-1.95-16-1.95h-.39l.39,3.95s-4.64,7.17-15.82,7.08-13.57-2.76-15.87-5.92c0,0-1.3-4.45-.8-6.81C143,276.85,135.5,277.5,125.5,286.5Z"/><path class="cls-1" d="M143.5,272.5a4.87,4.87,0,0,0-.19,1.41c0,2.53,1.69,7.59,15.19,7.59,18,0,16-9,16-9s-1-5-13-5S145.5,268.5,143.5,272.5Z"/><path class="cls-1" d="M143.5,282.5s0,6,14,7,18-7,18-7l-1-10s-.12-5-15.56-5-14.44,4-15.44,6a10.07,10.07,0,0,0-.43,4C143.14,280,143.5,282.5,143.5,282.5Z"/></g><path class="cls-2" d="M166,276l4,3s6-4,4-7-2.41-2.08-2.41-2.08L171,274Z"/><path class="cls-3" d="M143.5,282.5s0,6,14,7,18-7,18-7l-1-10c-2.8,12.94-32.54,10.72-31,1a24,24,0,0,0-.43,4C143.14,280,143.5,282.5,143.5,282.5Z"/><path class="cls-4" d="M143.5,272.5a4.87,4.87,0,0,0-.19,1.41c0,2.53,1.69,7.59,15.19,7.59,18,0,16-9,16-9s-1-5-13-5S145.5,268.5,143.5,272.5Z"/><path class="cls-5" d="M143.5,282.5s0,6,14,7,18-7,18-7l-1-10s-.12-5-15.56-5-14.44,4-15.44,6a10.07,10.07,0,0,0-.43,4C143.14,280,143.5,282.5,143.5,282.5Z"/><path class="cls-5" d="M125.5,286.5s-5,5-4,15l83,1s-2-19-13-22-16-1.95-16-1.95h-.39l.39,3.95s-4.64,7.17-15.82,7.08-13.57-2.76-15.87-5.92c0,0-1.3-4.45-.8-6.81C143,276.85,135.5,277.5,125.5,286.5Z"/><path class="cls-6" d="M134.5,281.5s5-1,3,2-7,4-9,9a17.55,17.55,0,0,0-1.2,9.07l-5.8-.07S120,288.59,129.74,283A12.58,12.58,0,0,1,134.5,281.5Z"/><path class="cls-7" d="M168.21,288.58s15.29-5.08,20.29-1.08,5,12,5,14,11,0,11,0-2.7-17.32-10.85-20.16a50.64,50.64,0,0,0-18.15-2.84h0v4S169.92,288.67,168.21,288.58Z"/><path class="cls-7" d="M170.33,279.34v7.9s5.17-3.74,5.17-4.74-.94-9.36-.94-9.36S175.16,277.17,170.33,279.34Z"/><path class="cls-8" d="M143,201s8,21,7,38-2,35-2,35,.5,3.5,10.5,3.5,13-5,13-5,0-37-3-53-8-22-8-22S147.5,200.5,143,201Z"/><path class="cls-3" d="M153.89,199s6.61,15.53,8.61,28.53,4,24,4,33v15.63s5-1.63,5-3.63,1.23-37.53-5.39-62.77c0,0-3.61-10.23-5.61-12.23Z"/><path class="cls-5" d="M150,226.5s14.89,2.35,18.24-8.32"/><path class="cls-5" d="M150.5,237.5s1,4,8,3,11-4,12-6"/><path class="cls-5" d="M149.63,250.63s.88,3.88,6.88,3.88S170,251,171.24,248.74"/><path class="cls-5" d="M147.5,213.5s1,2,6,2,12.85-4.58,12.43-6.29"/><path class="cls-5" d="M149,262.5s0,5,8.18,4,12.77-3.62,14.06-6.31"/></g></svg>