<svg xmlns="http://www.w3.org/2000/svg" viewBox="0 0 300 300"><defs><style>.cls-1{fill:#26a9e0;}.cls-2{fill:none;}.cls-2,.cls-5{stroke:#000;stroke-miterlimit:10;}.cls-3{fill:#fff;fill-opacity:0.4;}.cls-4{fill-opacity:0.2;}.cls-5{fill:#6d6e70;}</style></defs><title>body</title><g id="body-04"><path id="fill_color" data-name="fill color" class="cls-1" d="M148.46,242.82s-35,5.68-33,23.68c0,0-1,7,9,20s13,20,13,20l51-2s1-7,9-18,11-13,11-24-13.09-25.36-60-19.68"/><path class="cls-2" d="M148.46,242.82s-35,5.68-33,23.68c0,0-1,7,9,20s13,20,13,20l51-2s1-7,9-18,11-13,11-24-13.09-25.36-60-19.68"/><path class="cls-3" d="M131.83,247.83s-6.33,4.67-7.33,12.67c0,0-3,7,4,14s13,18,14,25-7.56,2.2-7.56,2.2-5.72-8.89-11.08-16-10.81-14.18-7.58-25.17C116.28,260.49,118.17,254.17,131.83,247.83Z"/><circle cx="155.5" cy="267.5" r="1"/><circle cx="144" cy="268" r="1"/><circle cx="132" cy="270" r="1"/><circle cx="122" cy="274" r="1"/><circle cx="170" cy="267" r="1"/><circle cx="183" cy="270" r="1"/><circle cx="194" cy="275" r="1"/><path class="cls-4" d="M193.33,245.17s-1.83,5.33,1.17,8.33,4,4,2,8a21.05,21.05,0,0,0-3.72,4c-1.28,2,.72,4-1.28,9s-15,28-15,28l12.74-.81s-.74-2.19,8.26-15.19,13-17.33,10-29.17C207.5,257.33,204.17,249.83,193.33,245.17Z"/><path class="cls-2" d="M116.5,272.83s-2-6.33,6-8.33,19-5,40-5,41,6,40,18a10,10,0,0,1-2.17,5"/><path class="cls-5" d="M166.5,205.5h-14a12.13,12.13,0,0,0-5,1l1,38s0,11,10,11,11-9,11-9-3-17-3-27Z"/><path class="cls-2" d="M166,212.5s-2.06,3-9.25,3-9.25-1.5-9.25-1.5"/><path class="cls-2" d="M166,224.5s-2.06,3-9.25,3-9.25-1.5-9.25-1.5"/><path class="cls-2" d="M167,238.5s-2.06,3-9.25,3-9.25-1.5-9.25-1.5"/><path class="cls-4" d="M159.17,205.5s-.67,9,1.33,15,4,15,3,21-1,12.74-3,13.87,8-.87,9-8.87a168.89,168.89,0,0,1-3-28.92V205.5Z"/><path class="cls-5" d="M197.5,286.5s12,3,14,13,16,4,16,4,4-1-2-15A31.19,31.19,0,0,0,207.19,271a29.16,29.16,0,0,1-5.19,9.56A32.56,32.56,0,0,0,197.5,286.5Z"/><path class="cls-2" d="M219.5,279.5s-11.86,4.53-11.93,12.76"/><path class="cls-2" d="M228.5,296.5a15.7,15.7,0,0,0-17,4"/><path class="cls-4" d="M224,304.64l4.82-4.14s-2.14-16.5-11-23-10.33-6-10.33-6l-3.27,6S222.47,286.77,224,304.64Z"/><path class="cls-5" d="M117.31,275.57S103.5,282.5,100.5,301.5s17,0,17,0,1.85-8.67,8.92-12.34C126.42,289.16,118.13,278.64,117.31,275.57Z"/><path class="cls-2" d="M109,283s7.48,11.61,11.58,11.55"/><path class="cls-2" d="M102,296s6.9,7.76,11.5,6.47"/><path class="cls-4" d="M119.5,283.5s-13,7-12,21,10.64-5.12,10.64-5.12,6.36-8.88,8.36-9.88l-5.5-7Z"/></g></svg>