<svg xmlns="http://www.w3.org/2000/svg" viewBox="0 0 300 300"><defs><style>.cls-1{fill:#26a9e0;}.cls-2{fill:#fff;fill-opacity:0.4;}.cls-3,.cls-7{fill:none;}.cls-3,.cls-5,.cls-6,.cls-7{stroke:#000;}.cls-3,.cls-5,.cls-6{stroke-miterlimit:10;}.cls-4,.cls-6{fill-opacity:0.2;}.cls-5{fill:#6d6e70;}.cls-7{stroke-linecap:round;stroke-linejoin:round;}</style></defs><title>body</title><g id="body-03"><g id="fill_color" data-name="fill color"><path class="cls-1" d="M180.45,252.21s-17.95-2.71-29.95,2.29-15,8-16,24c0,0,1,27,1,28s49,1,49,1v-9a27.15,27.15,0,0,1-3-13c0-8,7-6.16,7-6.16S177,279,177.24,263.25A16.2,16.2,0,0,1,180.45,252.21Z"/><path class="cls-1" d="M133.5,277.5s-6.92-1.5-8-5.25l-.68-1.62c-.37-6.66,1.07-12,5.72-15,0,0,5.17-4.37,11.55-4.24,0,0,5.37.13,7.37,3.13,0,0-9,3.6-12,9.3s-3.09,13.32-3,14Z"/><path class="cls-1" d="M188.5,247.5s-8,2-10,8-3,19,8,23,19-7,19-17S201.5,245.5,188.5,247.5Z"/></g><path class="cls-2" d="M134.5,254.5s3-1,3,0-6,5-7,10,0,8-2,8-4.67.09-2.84-10.45A13,13,0,0,1,134.5,254.5Z"/><path class="cls-3" d="M133.5,277.5s-6.92-1.5-8-5.25l-.68-1.62c-.37-6.66,1.07-12,5.72-15,0,0,5.17-4.37,11.55-4.24,0,0,5.37.13,7.37,3.13,0,0-9,3.6-12,9.3s-3.09,13.32-3,14Z"/><path class="cls-4" d="M189.5,248.5s9,0,9,10-4,16-9,17-7,.77-7,.77a12.77,12.77,0,0,0,8,3.07c5,.16,15-4.84,15-17.84s-7.26-14.64-14.13-14.32S188.5,248.5,189.5,248.5Z"/><path class="cls-3" d="M188.5,247.5s-8,2-10,8-3,19,8,23,19-7,19-17S201.5,245.5,188.5,247.5Z"/><path class="cls-5" d="M201.86,273.17s9.64,10.33,9.64,28.33h-13s2.74-14.31-7.13-22.15A11.59,11.59,0,0,0,201.86,273.17Z"/><path class="cls-4" d="M197.5,279.5s5,8,6,15,0,9,0,9h8S213,293,206.76,280.74c0,0-3.26-6.24-5.26-7.24a22,22,0,0,1-4.74,4.65Z"/><path class="cls-3" d="M180.45,252.21s-17.95-2.71-29.95,2.29-15,8-16,24c0,0,1,27,1,28s49,1,49,1v-9a27.15,27.15,0,0,1-3-13c0-8,7-6.16,7-6.16S177,279,177.24,263.25A16.2,16.2,0,0,1,180.45,252.21Z"/><path class="cls-6" d="M169.5,304.5s-7-21,0-42c0,0,3.39-7.79,10.2-10.39l.8.39s-3.64,3.11-3.32,10.06,2.16,14.4,9.74,16.17a5.19,5.19,0,0,0-5,3.77c-1.44,4,.38,11.28,1.47,13.64A13.05,13.05,0,0,1,184.5,301Z"/><path class="cls-2" d="M142.5,259.5a2.19,2.19,0,0,1,3,1q1.5,3-3,9c-3,4-3,14-2,19s2,10,2,13h-7.16S134,284,134.75,275.26s2.49-12.37,6.12-15.56Z"/><path class="cls-3" d="M150,254.71s-4.5-4.21-10.5-3.21-14,6-15,15,9,12,10,12C134.5,278.5,132.5,259.92,150,254.71Z"/><path class="cls-5" d="M130.17,276.81a64.62,64.62,0,0,1-1.51,10.87c-1.2,5.22-3.35,11-7.16,13.82l13.79-.59s-.79-21.41-.79-22.41Z"/><path class="cls-3" d="M134.5,290.5s-2.86-2.88-5.93-2.44"/><path class="cls-3" d="M124,299s5.55-1.48,9,2"/><path class="cls-5" d="M150,192s1,61,2,64c0,0,2,5,10,3,0,0,6-1,6-7,0,0-3.5-40.5-2.5-60.5C165.5,191.5,152.5,191.5,150,192Z"/><path class="cls-7" d="M164.5,202.5s0,3-5,3-8.56-1-9.28-1.5"/><path class="cls-7" d="M165,214.5s-1,2-5.18,2a39.35,39.35,0,0,1-9.38-1.58"/><path class="cls-3" d="M166,224.5s0,2-4.62,3-10.38-1-10.38-1"/><path class="cls-3" d="M166,233.5s0,2-3.21,3a16.53,16.53,0,0,1-11.79-1"/><path class="cls-3" d="M167,244.5a7,7,0,0,1-5.17,4c-4.13,1-10.48-1.51-10.48-1.51"/><path class="cls-3" d="M207,281.6s-4-2.4-12,2.4"/><path class="cls-3" d="M211.42,296.16s-2.24-4.33-12.58,1.51"/><path class="cls-4" d="M159,191.5h6.5v10s1,20,.89,29.33A182.26,182.26,0,0,0,168,252.75h0c-.5,4.25-5.5,5.75-5.5,5.75v-2c0-2,1-15,1-23s-4-40-4-40Z"/></g></svg>