<svg xmlns="http://www.w3.org/2000/svg" viewBox="0 0 300 300"><defs><style>.cls-1{fill:#26a9e0;}.cls-2{fill-opacity:0.6;}.cls-11,.cls-13,.cls-14,.cls-2,.cls-3,.cls-4,.cls-6,.cls-8{stroke:#000;}.cls-11,.cls-13,.cls-2,.cls-4,.cls-6,.cls-8{stroke-miterlimit:10;}.cls-11,.cls-14,.cls-3,.cls-8{fill:none;}.cls-14,.cls-3{stroke-linecap:round;stroke-linejoin:round;}.cls-10,.cls-12,.cls-4,.cls-5{fill:#fff;}.cls-12,.cls-4{fill-opacity:0.2;}.cls-4{stroke-opacity:0;}.cls-5{fill-opacity:0.1;}.cls-6{fill:#6d6e70;}.cls-7{fill:#58595b;}.cls-13,.cls-9{fill-opacity:0.4;}.cls-10{fill-opacity:0.5;}.cls-11,.cls-14{stroke-width:0.75px;}</style></defs><title>body</title><g id="body-10"><g id="fill_color" data-name="fill color"><path class="cls-1" d="M222.5,301.5s-10-35,11-53,58-15,70,2,2,51,2,51Z"/><path class="cls-1" d="M83.5,254.5s-6,28,67,26,77-30,76-36-12.3-10.12-26-13c0,5,1,22,1,22s-8,13-46,17c-29,1-45-9-45-9s-1.5-16-2.5-23.13C96.5,241.75,85.5,247.5,83.5,254.5Z"/><path class="cls-1" d="M110.5,261.5s20,11,44,9,36-7,47-17l-1-24a10.53,10.53,0,0,1-.31,4.41c-.69,1.59-4.63,16.78-42.16,19.68s-47-4.1-50-16.1Z"/><rect class="cls-1" x="83.5" y="250" width="143.5" height="58.5"/><path class="cls-1" d="M87.5,247.5s-19-10-37-5-29,20-32,37c-1,11,1,16,3,20h64s2-5,0-16-3-23-2-29S87.5,247.5,87.5,247.5Z"/><path class="cls-1" d="M108,237s-1,20,45,17,48.5-20.5,47.5-24.5c-.91-3.63-13.68-10.56-39-9.56,0,.56.26,3.3.26,3.3,1.74,9.26.74,15.26-9.26,16.26-3.41.33-10-5-10-5s-1-8-1-13C120.38,224.59,108.41,230,108,237Z"/></g><path class="cls-2" d="M108,237s-1,20,45,17,48.5-20.5,47.5-24.5c-.91-3.63-13.68-10.56-39-9.56,0,.56.26,3.3.26,3.3,1.74,9.26.74,15.26-9.26,16.26-3.41.33-10-5-10-5s-1-8-1-13C120.38,224.59,108.41,230,108,237Z"/><path class="cls-3" d="M110.5,261.5s20,11,44,9,36-7,47-17l-1-24a10.53,10.53,0,0,1-.31,4.41c-.69,1.59-4.63,16.78-42.16,19.68s-47-4.1-50-16.1Z"/><path class="cls-4" d="M193.37,260.15c-6.66,3.83-18.28,8.29-37.87,10.35-29,1-45-9-45-9s-1.5-16-2.5-23.13c-11.5,3.38-22.5,9.13-24.5,16.13,0,0-6,28,67,26,29.58-.81,47.84-5.89,59-12"/><path class="cls-5" d="M83.5,254.5s-6,28,67,26c29.58-.81,47.84-5.89,59-12-5.5-2.5-10.5-5.5-16.13-8.35-6.66,3.83-18.28,8.29-37.87,10.35-29,1-45-9-45-9s-1.5-16-2.5-23.13C96.5,241.75,85.5,247.5,83.5,254.5Z"/><path class="cls-6" d="M141.5,190.5v29a142.25,142.25,0,0,0,1,15,9.78,9.78,0,0,0,10,5c7-1,11-4,10-11-.36-2.54-.73-5-1-7.56a138.9,138.9,0,0,1-1-17.44v-14A69.37,69.37,0,0,0,141.5,190.5Z"/><path class="cls-7" d="M152.5,190.5s0,7,2,12a55.9,55.9,0,0,1,3.13,17.34c-.12,3.66.88,15.66-3.12,17.66s-2,2-2,2,7-1.57,8.48-3.79,1.94-3.24,1.23-9.23a177.33,177.33,0,0,1-1.71-24.86V189.5a37.46,37.46,0,0,0-6.17-.25l-1.83.25Z"/><path class="cls-8" d="M141.5,190.5v29a142.25,142.25,0,0,0,1,15,9.78,9.78,0,0,0,10,5c7-1,11-4,10-11-.36-2.54-.73-5-1-7.56a138.9,138.9,0,0,1-1-17.44v-14A69.37,69.37,0,0,0,141.5,190.5Z"/><path class="cls-3" d="M161.25,222.25s-2.67,3.25-9.51,3.25-10.13-2-10.13-2"/><path class="cls-3" d="M160,208.5s-3,3-9.06,3S142,210,142,210"/><path class="cls-3" d="M160,197.5s-2,2-8.06,2A86.48,86.48,0,0,1,142,199"/><path class="cls-9" d="M188,246.51,189.52,262s6.63-4,9.06-6l2.42-2s.72.24.36-3.88-.79-17.93-.79-17.93S200,240,188,246.51Z"/><path class="cls-10" d="M84,273.63S97,277,97,285s-1,9,0,14,0,4,0,4H84s3.32-3,2.41-11.26S85,279.5,85,279.5Z"/><path class="cls-8" d="M87.5,247.5s-19-10-37-5-29,20-32,37c-1,11,1,16,3,20h64s2-5,0-16-3-23-2-29S87.5,247.5,87.5,247.5Z"/><path class="cls-9" d="M87.5,247.5a63.65,63.65,0,0,0-25.06-6.39c7.06,2.39,3.06,8.39-8.94,13.39-11,6-23,10-27.5,32.5-.67,7.37.84,13.18,1.5,14.5l58-2s2-5,0-16-3-23-2-29S87.5,247.5,87.5,247.5Z"/><path class="cls-11" d="M33.5,299.5s-7-19-3-35a28.63,28.63,0,0,1,17-21.06"/><path class="cls-12" d="M62.44,241.12a3.46,3.46,0,0,1,3.06,3.38c0,3,0,4-10,9s-21.45,10-26.22,21-2.62,25-2.62,25H21.5l-3-20S27.38,241.73,62.44,241.12Z"/><path class="cls-9" d="M84.26,275.62A31.64,31.64,0,0,1,80.5,290.5a19.71,19.71,0,0,1-11.14,8.83l16.14.17s1.42-2.62.71-10.81A90.57,90.57,0,0,0,84.26,275.62Z"/><path class="cls-13" d="M222.5,301.5s-10-35,11-53,58-15,70,2,2,51,2,51Z"/><path class="cls-14" d="M292.5,241.5s-12-1-13,15c-1,14,4,41,7,45"/><path class="cls-9" d="M226.5,244.5l.74,11a39.65,39.65,0,0,0-7.12,24.19c.38,14.81,2.38,21.81,2.38,21.81h-12s1-9,.5-14.5-1.49-18.55-1.49-18.55S227.5,259.5,226.5,244.5Z"/><path class="cls-8" d="M209.51,268.45s18-9,17-24l.74,11a39.65,39.65,0,0,0-7.12,24.19c.38,14.81,2.38,21.81,2.38,21.81h-12"/><path class="cls-9" d="M293.9,242.19c-1.9-1.19,6.6,6.31,7.6,15.31s7.11,6.39,7.11,6.39-.11-8.39-5.11-13.39S295.81,243.38,293.9,242.19Z"/><circle cx="154" cy="262" r="1.5"/><circle cx="170.5" cy="259.5" r="1.5"/><circle cx="183.5" cy="255.5" r="1.5"/><circle cx="194.5" cy="250.5" r="1.5"/><circle cx="138.5" cy="261.5" r="1.5"/><circle cx="125.5" cy="259.5" r="1.5"/><circle cx="115.5" cy="255.5" r="1.5"/><path class="cls-8" d="M83.5,254.5s-6,28,67,26,77-30,76-36-12.3-10.12-26-13c0,5,1,22,1,22s-8,13-46,17c-29,1-45-9-45-9s-1.5-16-2.5-23.13C96.5,241.75,85.5,247.5,83.5,254.5Z"/></g></svg>