<svg id="body-01" xmlns="http://www.w3.org/2000/svg" viewBox="0 0 300 300"><defs><style>.cls-1{fill:#26a9e0;}.cls-2{fill:#fff;fill-opacity:0.4;}.cls-3,.cls-5,.cls-7{fill:none;}.cls-3,.cls-4,.cls-5,.cls-6,.cls-7,.cls-8{stroke:#000;stroke-miterlimit:10;}.cls-3{stroke-width:1.2px;}.cls-4,.cls-6,.cls-9{fill-opacity:0.2;}.cls-5{stroke-width:1.25px;}.cls-6{stroke-width:0.75px;}.cls-8{fill:#6d6e70;}</style></defs><title>body</title><g id="fill_color" data-name="fill color"><path class="cls-1" d="M106,247.52s-34.47,3-50.47,32c0,0-5,9-6,23h27S77.43,272.54,106,247.52Z"/><path class="cls-1" d="M226.5,236.5s-6-10-26-12-56-2-81,13-43,44-43,65h115s3-31,22-53c0,0,8.88-7.45,14.44-9.22C227.94,240.28,228.5,239.5,226.5,236.5Z"/><path class="cls-1" d="M286.5,302.5s4-50-16-59-44-8-57,6-22,43-22,53Z"/></g><path class="cls-2" d="M91.18,264s5.32.48,3.32,9.48-5,7-7,17-2.5,12-2.5,12H76.5S75.85,285.54,91.18,264Z"/><path class="cls-3" d="M286.5,302.5s4-50-16-59-44-8-57,6-22,43-22,53Z"/><path class="cls-4" d="M268.5,247.5s-8,8-11,26-2.25,29-2.25,29H286.5s3.84-41.79-12.58-56.9C273.92,245.6,271.5,244.5,268.5,247.5Z"/><path class="cls-5" d="M226.5,236.5s-6-10-26-12-56-2-81,13-43,44-43,65h115s3-31,22-53c0,0,8.88-7.45,14.44-9.22C227.94,240.28,228.5,239.5,226.5,236.5Z"/><path class="cls-6" d="M218.22,229.55s-18.72.95-31.72,20.95-17,37-17.5,52h22.5c-1.42.12,8.08-36.84,16-45.5,10-15.5,21-16.5,21-16.5S228.93,235.6,218.22,229.55Z"/><path class="cls-7" d="M106,247.52s-34.47,3-50.47,32c0,0-5,9-6,23h27S77.43,272.54,106,247.52Z"/><path class="cls-2" d="M80.61,255.48s2.89,2-6.11,12a94,94,0,0,0-17,26c-3,7-1.75,9-1.75,9H49.5S50.73,270.47,80.61,255.48Z"/><path class="cls-3" d="M106,247.52s-34.47,3-50.47,32c0,0-5,9-6,23h27S77.43,272.54,106,247.52Z"/><path class="cls-7" d="M153.5,251.5c7.6-.12,26-2,27-14s-27-8-27-8-22,1-22,11S147.35,251.6,153.5,251.5Z"/><path class="cls-8" d="M138.5,166.5s12,33,4,72c0,0,1,6,12,5s12-5,12-5,6-37-10-75C156.5,163.5,145.5,166.5,138.5,166.5Z"/><path class="cls-7" d="M161,176a15.59,15.59,0,0,1-7.53,3.51c-5,1-9,1-11.52,0"/><path class="cls-7" d="M163.66,185.38c-1.18,2.51-2.36,7.71-20,5.42"/><path class="cls-7" d="M166.32,200.74s-4.63,7.77-21.23,3.27"/><path class="cls-7" d="M167.42,213.41s-3.73,9.13-22.33,4.11"/><path class="cls-7" d="M167.42,227.17s-7.75,9.36-23.34,1.85"/><circle cx="154.5" cy="247.5" r="1.5"/><circle cx="166.5" cy="244.5" r="1.5"/><circle cx="174.5" cy="237.5" r="1.5"/><circle cx="168.5" cy="232.5" r="1.5"/><circle cx="142.5" cy="245.5" r="1.5"/><circle cx="137.5" cy="240.5" r="1.5"/><path class="cls-9" d="M150.5,164.5s10.5,29.5,11,45a328.75,328.75,0,0,1-1,33l6-3c3.29-1.87.5-61.5-10-76Z"/></svg>